<?xml version="1.0" encoding="UTF-8"?>
<svg xmlns="http://www.w3.org/2000/svg" xmlns:xlink="http://www.w3.org/1999/xlink" width="375pt" height="374.999991pt" viewBox="0 0 375 374.999991" version="1.2">
<defs>
<clipPath id="clip1">
  <path d="M 37.5 37.5 L 337.5 37.5 L 337.5 337.5 L 37.5 337.5 Z M 37.5 37.5 "/>
</clipPath>
</defs>
<g id="surface1">
<path style=" stroke:none;fill-rule:nonzero;fill:rgb(100%,100%,100%);fill-opacity:1;" d="M 187.5 45.257812 C 185.171875 45.257812 182.84375 45.3125 180.519531 45.425781 C 178.191406 45.542969 175.871094 45.710938 173.554688 45.9375 C 171.238281 46.167969 168.925781 46.449219 166.625 46.792969 C 164.320312 47.132812 162.027344 47.53125 159.742188 47.984375 C 157.460938 48.4375 155.1875 48.945312 152.929688 49.511719 C 150.671875 50.078125 148.425781 50.695312 146.199219 51.371094 C 143.96875 52.046875 141.761719 52.777344 139.566406 53.558594 C 137.375 54.34375 135.203125 55.179688 133.050781 56.070312 C 130.898438 56.960938 128.773438 57.90625 126.667969 58.898438 C 124.5625 59.894531 122.480469 60.941406 120.429688 62.039062 C 118.375 63.136719 116.347656 64.28125 114.351562 65.480469 C 112.355469 66.675781 110.386719 67.921875 108.453125 69.214844 C 106.515625 70.507812 104.613281 71.847656 102.742188 73.234375 C 100.871094 74.621094 99.035156 76.050781 97.234375 77.527344 C 95.433594 79.003906 93.671875 80.523438 91.945312 82.089844 C 90.222656 83.652344 88.535156 85.257812 86.886719 86.902344 C 85.242188 88.550781 83.636719 90.234375 82.074219 91.960938 C 80.507812 93.683594 78.988281 95.445312 77.511719 97.246094 C 76.03125 99.046875 74.601562 100.882812 73.214844 102.75 C 71.824219 104.621094 70.484375 106.523438 69.191406 108.460938 C 67.898438 110.394531 66.652344 112.363281 65.453125 114.359375 C 64.257812 116.355469 63.109375 118.382812 62.011719 120.433594 C 60.914062 122.488281 59.867188 124.566406 58.871094 126.671875 C 57.875 128.777344 56.933594 130.902344 56.042969 133.054688 C 55.152344 135.207031 54.3125 137.378906 53.527344 139.570312 C 52.742188 141.761719 52.011719 143.972656 51.335938 146.199219 C 50.660156 148.429688 50.039062 150.671875 49.472656 152.929688 C 48.910156 155.1875 48.398438 157.460938 47.945312 159.742188 C 47.488281 162.027344 47.089844 164.320312 46.75 166.625 C 46.40625 168.925781 46.121094 171.238281 45.894531 173.554688 C 45.667969 175.871094 45.496094 178.195312 45.382812 180.519531 C 45.265625 182.84375 45.210938 185.171875 45.210938 187.5 C 45.210938 189.828125 45.265625 192.15625 45.382812 194.480469 C 45.496094 196.804688 45.667969 199.128906 45.894531 201.445312 C 46.121094 203.761719 46.40625 206.074219 46.75 208.375 C 47.089844 210.679688 47.488281 212.972656 47.945312 215.257812 C 48.398438 217.539062 48.910156 219.8125 49.472656 222.070312 C 50.039062 224.328125 50.660156 226.570312 51.335938 228.800781 C 52.011719 231.027344 52.742188 233.238281 53.527344 235.429688 C 54.3125 237.621094 55.152344 239.792969 56.042969 241.945312 C 56.933594 244.097656 57.875 246.222656 58.871094 248.328125 C 59.867188 250.433594 60.914062 252.511719 62.011719 254.566406 C 63.109375 256.617188 64.257812 258.644531 65.453125 260.640625 C 66.652344 262.636719 67.898438 264.605469 69.191406 266.539062 C 70.484375 268.476562 71.824219 270.378906 73.214844 272.25 C 74.601562 274.117188 76.03125 275.953125 77.511719 277.753906 C 78.988281 279.554688 80.507812 281.316406 82.074219 283.039062 C 83.636719 284.765625 85.242188 286.449219 86.886719 288.097656 C 88.535156 289.742188 90.222656 291.347656 91.945312 292.910156 C 93.671875 294.476562 95.433594 295.996094 97.234375 297.472656 C 99.035156 298.949219 100.871094 300.378906 102.742188 301.765625 C 104.613281 303.152344 106.515625 304.492188 108.453125 305.785156 C 110.386719 307.078125 112.355469 308.324219 114.351562 309.519531 C 116.347656 310.71875 118.375 311.863281 120.429688 312.960938 C 122.480469 314.058594 124.5625 315.105469 126.667969 316.101562 C 128.773438 317.09375 130.898438 318.039062 133.050781 318.929688 C 135.203125 319.820312 137.375 320.65625 139.566406 321.4375 C 141.761719 322.222656 143.96875 322.953125 146.199219 323.628906 C 148.425781 324.304688 150.671875 324.921875 152.929688 325.488281 C 155.1875 326.054688 157.460938 326.5625 159.742188 327.015625 C 162.027344 327.46875 164.320312 327.867188 166.625 328.207031 C 168.925781 328.550781 171.238281 328.832031 173.554688 329.0625 C 175.871094 329.289062 178.191406 329.457031 180.519531 329.574219 C 182.84375 329.6875 185.171875 329.742188 187.5 329.742188 C 189.828125 329.742188 192.15625 329.6875 194.480469 329.574219 C 196.808594 329.457031 199.128906 329.289062 201.445312 329.0625 C 203.761719 328.832031 206.074219 328.550781 208.375 328.207031 C 210.679688 327.867188 212.972656 327.46875 215.257812 327.015625 C 217.539062 326.5625 219.8125 326.054688 222.070312 325.488281 C 224.328125 324.921875 226.574219 324.304688 228.800781 323.628906 C 231.03125 322.953125 233.238281 322.222656 235.433594 321.4375 C 237.625 320.65625 239.796875 319.820312 241.949219 318.929688 C 244.101562 318.039062 246.226562 317.09375 248.332031 316.101562 C 250.4375 315.105469 252.519531 314.058594 254.570312 312.960938 C 256.625 311.863281 258.652344 310.71875 260.648438 309.519531 C 262.644531 308.324219 264.613281 307.078125 266.546875 305.785156 C 268.484375 304.492188 270.386719 303.152344 272.257812 301.765625 C 274.128906 300.378906 275.964844 298.949219 277.765625 297.472656 C 279.566406 295.996094 281.328125 294.476562 283.054688 292.910156 C 284.777344 291.347656 286.464844 289.742188 288.113281 288.097656 C 289.757812 286.449219 291.363281 284.765625 292.925781 283.039062 C 294.492188 281.316406 296.011719 279.554688 297.488281 277.753906 C 298.96875 275.953125 300.398438 274.117188 301.785156 272.25 C 303.175781 270.378906 304.515625 268.476562 305.808594 266.539062 C 307.101562 264.605469 308.347656 262.636719 309.542969 260.640625 C 310.742188 258.644531 311.890625 256.617188 312.988281 254.566406 C 314.085938 252.511719 315.132812 250.433594 316.128906 248.328125 C 317.125 246.222656 318.066406 244.097656 318.957031 241.945312 C 319.847656 239.792969 320.6875 237.621094 321.472656 235.429688 C 322.257812 233.238281 322.988281 231.027344 323.664062 228.800781 C 324.339844 226.570312 324.960938 224.328125 325.527344 222.070312 C 326.089844 219.8125 326.601562 217.539062 327.054688 215.257812 C 327.511719 212.972656 327.910156 210.679688 328.25 208.375 C 328.59375 206.074219 328.875 203.761719 329.105469 201.445312 C 329.332031 199.128906 329.503906 196.804688 329.617188 194.480469 C 329.734375 192.15625 329.789062 189.828125 329.789062 187.5 C 329.789062 185.171875 329.734375 182.84375 329.617188 180.519531 C 329.503906 178.195312 329.332031 175.871094 329.105469 173.554688 C 328.875 171.238281 328.59375 168.925781 328.25 166.625 C 327.910156 164.320312 327.511719 162.027344 327.054688 159.742188 C 326.601562 157.460938 326.089844 155.1875 325.527344 152.929688 C 324.960938 150.671875 324.339844 148.429688 323.664062 146.199219 C 322.988281 143.972656 322.257812 141.761719 321.472656 139.570312 C 320.6875 137.378906 319.847656 135.207031 318.957031 133.054688 C 318.066406 130.902344 317.125 128.777344 316.128906 126.671875 C 315.132812 124.566406 314.085938 122.488281 312.988281 120.433594 C 311.890625 118.382812 310.742188 116.355469 309.542969 114.359375 C 308.347656 112.363281 307.101562 110.394531 305.808594 108.460938 C 304.515625 106.523438 303.175781 104.621094 301.785156 102.75 C 300.398438 100.882812 298.96875 99.046875 297.488281 97.246094 C 296.011719 95.445312 294.492188 93.683594 292.925781 91.960938 C 291.363281 90.234375 289.757812 88.550781 288.113281 86.902344 C 286.464844 85.257812 284.777344 83.652344 283.054688 82.089844 C 281.328125 80.523438 279.566406 79.003906 277.765625 77.527344 C 275.964844 76.050781 274.128906 74.621094 272.257812 73.234375 C 270.386719 71.847656 268.484375 70.507812 266.546875 69.214844 C 264.613281 67.921875 262.644531 66.675781 260.648438 65.480469 C 258.652344 64.28125 256.625 63.136719 254.570312 62.039062 C 252.519531 60.941406 250.4375 59.894531 248.332031 58.898438 C 246.226562 57.90625 244.101562 56.960938 241.949219 56.070312 C 239.796875 55.179688 237.625 54.34375 235.433594 53.5625 C 233.238281 52.777344 231.03125 52.046875 228.800781 51.371094 C 226.574219 50.695312 224.328125 50.078125 222.070312 49.511719 C 219.8125 48.945312 217.539062 48.4375 215.257812 47.984375 C 212.972656 47.53125 210.679688 47.132812 208.375 46.792969 C 206.074219 46.449219 203.761719 46.167969 201.445312 45.9375 C 199.128906 45.710938 196.808594 45.542969 194.480469 45.425781 C 192.15625 45.3125 189.828125 45.257812 187.5 45.257812 Z M 187.5 45.257812 "/>
<path style=" stroke:none;fill-rule:nonzero;fill:rgb(78.819275%,40.779114%,78.819275%);fill-opacity:1;" d="M 187.5 84.050781 C 185.808594 84.050781 184.113281 84.09375 182.425781 84.175781 C 180.734375 84.257812 179.046875 84.382812 177.359375 84.550781 C 175.675781 84.714844 173.996094 84.921875 172.320312 85.171875 C 170.644531 85.417969 168.980469 85.710938 167.316406 86.039062 C 165.65625 86.371094 164.007812 86.742188 162.363281 87.152344 C 160.722656 87.5625 159.089844 88.015625 157.46875 88.507812 C 155.851562 88.996094 154.242188 89.527344 152.648438 90.097656 C 151.054688 90.667969 149.476562 91.277344 147.910156 91.925781 C 146.347656 92.574219 144.800781 93.261719 143.269531 93.984375 C 141.738281 94.707031 140.226562 95.46875 138.734375 96.265625 C 137.242188 97.066406 135.769531 97.898438 134.316406 98.769531 C 132.863281 99.640625 131.433594 100.546875 130.027344 101.484375 C 128.621094 102.425781 127.234375 103.402344 125.875 104.410156 C 124.515625 105.417969 123.183594 106.460938 121.875 107.535156 C 120.5625 108.605469 119.28125 109.714844 118.027344 110.851562 C 116.773438 111.988281 115.546875 113.152344 114.351562 114.351562 C 113.152344 115.546875 111.988281 116.773438 110.851562 118.027344 C 109.714844 119.28125 108.609375 120.5625 107.535156 121.875 C 106.460938 123.183594 105.417969 124.515625 104.410156 125.875 C 103.402344 127.234375 102.425781 128.621094 101.484375 130.027344 C 100.546875 131.433594 99.640625 132.863281 98.769531 134.316406 C 97.898438 135.769531 97.066406 137.242188 96.265625 138.734375 C 95.46875 140.226562 94.707031 141.738281 93.984375 143.269531 C 93.261719 144.800781 92.574219 146.347656 91.925781 147.910156 C 91.277344 149.476562 90.667969 151.054688 90.097656 152.648438 C 89.527344 154.242188 88.996094 155.851562 88.507812 157.46875 C 88.015625 159.089844 87.5625 160.722656 87.152344 162.363281 C 86.742188 164.007812 86.371094 165.65625 86.039062 167.316406 C 85.710938 168.980469 85.417969 170.644531 85.171875 172.320312 C 84.921875 173.996094 84.714844 175.675781 84.550781 177.359375 C 84.382812 179.046875 84.257812 180.734375 84.175781 182.425781 C 84.09375 184.113281 84.050781 185.808594 84.050781 187.5 C 84.050781 189.191406 84.09375 190.886719 84.175781 192.574219 C 84.257812 194.265625 84.382812 195.953125 84.550781 197.640625 C 84.714844 199.324219 84.921875 201.003906 85.171875 202.679688 C 85.417969 204.355469 85.710938 206.019531 86.039062 207.683594 C 86.371094 209.34375 86.742188 210.992188 87.152344 212.636719 C 87.5625 214.277344 88.015625 215.910156 88.507812 217.53125 C 88.996094 219.148438 89.527344 220.757812 90.097656 222.351562 C 90.667969 223.945312 91.277344 225.523438 91.925781 227.085938 C 92.574219 228.652344 93.261719 230.199219 93.984375 231.730469 C 94.707031 233.261719 95.46875 234.773438 96.265625 236.265625 C 97.066406 237.757812 97.898438 239.230469 98.769531 240.683594 C 99.640625 242.136719 100.546875 243.566406 101.484375 244.972656 C 102.425781 246.378906 103.402344 247.765625 104.410156 249.125 C 105.417969 250.484375 106.460938 251.816406 107.535156 253.125 C 108.609375 254.433594 109.714844 255.71875 110.851562 256.972656 C 111.988281 258.226562 113.152344 259.453125 114.351562 260.648438 C 115.546875 261.847656 116.773438 263.011719 118.027344 264.148438 C 119.28125 265.285156 120.5625 266.390625 121.875 267.464844 C 123.183594 268.539062 124.515625 269.582031 125.875 270.589844 C 127.234375 271.597656 128.621094 272.574219 130.027344 273.515625 C 131.433594 274.453125 132.863281 275.359375 134.316406 276.230469 C 135.769531 277.101562 137.242188 277.933594 138.734375 278.734375 C 140.226562 279.53125 141.738281 280.292969 143.269531 281.015625 C 144.800781 281.738281 146.347656 282.425781 147.910156 283.074219 C 149.476562 283.722656 151.054688 284.332031 152.648438 284.902344 C 154.242188 285.472656 155.851562 286.003906 157.46875 286.492188 C 159.089844 286.984375 160.722656 287.4375 162.363281 287.847656 C 164.007812 288.257812 165.65625 288.628906 167.316406 288.960938 C 168.980469 289.289062 170.644531 289.582031 172.320312 289.828125 C 173.996094 290.078125 175.675781 290.285156 177.359375 290.449219 C 179.046875 290.617188 180.734375 290.742188 182.425781 290.824219 C 184.113281 290.90625 185.808594 290.949219 187.5 290.949219 C 189.191406 290.949219 190.886719 290.90625 192.574219 290.824219 C 194.265625 290.742188 195.953125 290.617188 197.640625 290.449219 C 199.324219 290.285156 201.003906 290.078125 202.679688 289.828125 C 204.355469 289.582031 206.019531 289.289062 207.683594 288.960938 C 209.34375 288.628906 210.992188 288.257812 212.636719 287.847656 C 214.277344 287.4375 215.910156 286.984375 217.53125 286.492188 C 219.148438 286.003906 220.757812 285.472656 222.351562 284.902344 C 223.945312 284.332031 225.523438 283.722656 227.085938 283.074219 C 228.652344 282.425781 230.199219 281.738281 231.730469 281.015625 C 233.261719 280.292969 234.773438 279.53125 236.265625 278.734375 C 237.757812 277.933594 239.230469 277.101562 240.683594 276.230469 C 242.136719 275.359375 243.566406 274.453125 244.972656 273.515625 C 246.378906 272.574219 247.765625 271.597656 249.125 270.589844 C 250.484375 269.582031 251.816406 268.539062 253.125 267.464844 C 254.433594 266.390625 255.71875 265.285156 256.972656 264.148438 C 258.226562 263.011719 259.453125 261.847656 260.648438 260.648438 C 261.847656 259.453125 263.011719 258.226562 264.148438 256.972656 C 265.285156 255.71875 266.390625 254.433594 267.464844 253.125 C 268.539062 251.816406 269.582031 250.484375 270.589844 249.125 C 271.597656 247.765625 272.574219 246.378906 273.515625 244.972656 C 274.453125 243.566406 275.359375 242.136719 276.230469 240.683594 C 277.101562 239.230469 277.933594 237.757812 278.734375 236.265625 C 279.53125 234.773438 280.292969 233.261719 281.015625 231.730469 C 281.738281 230.199219 282.425781 228.652344 283.074219 227.085938 C 283.722656 225.523438 284.332031 223.945312 284.902344 222.351562 C 285.472656 220.757812 286.003906 219.148438 286.492188 217.53125 C 286.984375 215.910156 287.4375 214.277344 287.847656 212.636719 C 288.257812 210.992188 288.628906 209.34375 288.960938 207.683594 C 289.289062 206.019531 289.582031 204.355469 289.828125 202.679688 C 290.078125 201.003906 290.285156 199.324219 290.449219 197.640625 C 290.617188 195.953125 290.742188 194.265625 290.824219 192.574219 C 290.90625 190.886719 290.949219 189.191406 290.949219 187.5 C 290.949219 185.808594 290.90625 184.113281 290.824219 182.425781 C 290.742188 180.734375 290.617188 179.046875 290.449219 177.359375 C 290.285156 175.675781 290.078125 173.996094 289.828125 172.320312 C 289.582031 170.644531 289.289062 168.980469 288.960938 167.316406 C 288.628906 165.65625 288.257812 164.007812 287.847656 162.363281 C 287.4375 160.722656 286.984375 159.089844 286.492188 157.46875 C 286.003906 155.851562 285.472656 154.242188 284.902344 152.648438 C 284.332031 151.054688 283.722656 149.476562 283.074219 147.910156 C 282.425781 146.347656 281.738281 144.800781 281.015625 143.269531 C 280.292969 141.738281 279.53125 140.226562 278.734375 138.734375 C 277.933594 137.242188 277.101562 135.769531 276.230469 134.316406 C 275.359375 132.863281 274.453125 131.433594 273.515625 130.027344 C 272.574219 128.621094 271.597656 127.234375 270.589844 125.875 C 269.582031 124.515625 268.539062 123.183594 267.464844 121.875 C 266.390625 120.5625 265.285156 119.28125 264.148438 118.027344 C 263.011719 116.773438 261.847656 115.546875 260.648438 114.351562 C 259.453125 113.152344 258.226562 111.988281 256.972656 110.851562 C 255.71875 109.714844 254.433594 108.605469 253.125 107.535156 C 251.816406 106.460938 250.484375 105.417969 249.125 104.410156 C 247.765625 103.402344 246.378906 102.425781 244.972656 101.484375 C 243.566406 100.546875 242.136719 99.640625 240.683594 98.769531 C 239.230469 97.898438 237.757812 97.066406 236.265625 96.265625 C 234.773438 95.46875 233.261719 94.707031 231.730469 93.984375 C 230.199219 93.261719 228.652344 92.574219 227.085938 91.925781 C 225.523438 91.277344 223.945312 90.667969 222.351562 90.097656 C 220.757812 89.527344 219.148438 88.996094 217.53125 88.507812 C 215.910156 88.015625 214.277344 87.5625 212.636719 87.152344 C 210.992188 86.742188 209.34375 86.371094 207.683594 86.039062 C 206.019531 85.710938 204.355469 85.417969 202.679688 85.171875 C 201.003906 84.921875 199.324219 84.714844 197.640625 84.550781 C 195.953125 84.382812 194.265625 84.257812 192.574219 84.175781 C 190.886719 84.09375 189.191406 84.050781 187.5 84.050781 Z M 187.5 84.050781 "/>
<path style=" stroke:none;fill-rule:nonzero;fill:rgb(100%,100%,100%);fill-opacity:1;" d="M 231.722656 223.964844 C 229.65625 223.964844 227.585938 223.191406 226.035156 221.378906 C 223.191406 218.277344 223.449219 213.363281 226.550781 210.515625 L 251.636719 187.5 L 226.550781 164.484375 C 223.449219 161.636719 223.191406 156.722656 226.035156 153.621094 C 228.878906 150.515625 233.792969 150.257812 236.898438 153.101562 L 268.191406 181.808594 C 269.742188 183.363281 270.777344 185.429688 270.777344 187.5 C 270.777344 189.570312 269.742188 191.636719 268.191406 193.191406 L 237.15625 221.898438 C 235.601562 223.191406 233.792969 223.964844 231.722656 223.964844 Z M 143.277344 223.964844 C 141.464844 223.964844 139.398438 223.191406 138.101562 221.898438 L 106.808594 193.191406 C 105.257812 191.636719 104.222656 189.570312 104.222656 187.5 C 104.222656 185.429688 105.257812 183.363281 106.808594 181.808594 L 138.101562 153.101562 C 141.207031 150.257812 146.121094 150.515625 148.964844 153.621094 C 151.808594 156.722656 151.550781 161.636719 148.449219 164.484375 L 123.363281 187.5 L 148.449219 210.515625 C 151.550781 213.363281 151.808594 218.277344 148.964844 221.378906 C 147.414062 222.929688 145.34375 223.964844 143.277344 223.964844 Z M 166.808594 257.328125 C 166.035156 257.328125 165.257812 257.328125 164.484375 256.808594 C 160.34375 255.515625 158.277344 251.121094 159.570312 246.984375 L 200.949219 122.84375 C 202.242188 118.707031 206.636719 116.636719 210.777344 117.929688 C 214.914062 119.222656 216.984375 123.621094 215.691406 127.757812 L 174.308594 251.898438 C 173.015625 255.257812 170.171875 257.328125 166.808594 257.328125 Z M 166.808594 257.328125 "/>
<g clip-path="url(#clip1)" clip-rule="nonzero">
<path style=" stroke:none;fill-rule:nonzero;fill:rgb(26.669312%,29.40979%,32.939148%);fill-opacity:1;" d="M 187.5 337.5 C 104.742188 337.5 37.5 270.257812 37.5 187.5 C 37.5 104.742188 104.742188 37.5 187.5 37.5 C 270.257812 37.5 337.5 104.742188 337.5 187.5 C 337.5 270.257812 270.257812 337.5 187.5 337.5 Z M 187.5 53.015625 C 113.277344 53.015625 53.015625 113.277344 53.015625 187.5 C 53.015625 261.722656 113.277344 321.984375 187.5 321.984375 C 261.722656 321.984375 321.984375 261.722656 321.984375 187.5 C 321.984375 113.277344 261.722656 53.015625 187.5 53.015625 Z M 187.5 53.015625 "/>
</g>
</g>
</svg>
