<?xml version="1.0" encoding="UTF-8"?>
<svg xmlns="http://www.w3.org/2000/svg" xmlns:xlink="http://www.w3.org/1999/xlink" width="375pt" height="374.999991pt" viewBox="0 0 375 374.999991" version="1.2">
<defs>
<clipPath id="clip1">
  <path d="M 187 113 L 358.5625 113 L 358.5625 307 L 187 307 Z M 187 113 "/>
</clipPath>
<clipPath id="clip2">
  <path d="M 16.5625 65.355469 L 256 65.355469 L 256 260 L 16.5625 260 Z M 16.5625 65.355469 "/>
</clipPath>
</defs>
<g id="surface1">
<g clip-path="url(#clip1)" clip-rule="nonzero">
<path style=" stroke:none;fill-rule:nonzero;fill:rgb(78.819275%,40.779114%,78.819275%);fill-opacity:1;" d="M 187.269531 199.511719 C 187.269531 152.222656 225.574219 113.882812 272.851562 113.882812 C 320.117188 113.882812 358.421875 152.222656 358.421875 199.511719 C 358.421875 239.394531 331.179688 272.890625 294.3125 282.425781 C 299.296875 291.484375 306.460938 301.476562 315.636719 306.476562 C 315.636719 306.476562 270.882812 309.882812 247.207031 281.230469 C 212.464844 270.320312 187.269531 237.863281 187.269531 199.511719 "/>
</g>
<path style=" stroke:none;fill-rule:nonzero;fill:rgb(100%,100%,100%);fill-opacity:1;" d="M 315.464844 176.3125 L 225.226562 176.3125 C 221.945312 176.3125 219.273438 173.652344 219.273438 170.367188 C 219.273438 167.082031 221.945312 164.421875 225.226562 164.421875 L 315.464844 164.421875 C 318.746094 164.421875 321.40625 167.082031 321.40625 170.367188 C 321.40625 173.652344 318.746094 176.3125 315.464844 176.3125 "/>
<path style=" stroke:none;fill-rule:nonzero;fill:rgb(100%,100%,100%);fill-opacity:1;" d="M 315.464844 204.742188 L 225.226562 204.742188 C 221.945312 204.742188 219.273438 202.082031 219.273438 198.792969 C 219.273438 195.507812 221.945312 192.847656 225.226562 192.847656 L 315.464844 192.847656 C 318.746094 192.847656 321.40625 195.507812 321.40625 198.792969 C 321.40625 202.082031 318.746094 204.742188 315.464844 204.742188 "/>
<path style=" stroke:none;fill-rule:nonzero;fill:rgb(100%,100%,100%);fill-opacity:1;" d="M 315.464844 233.167969 L 225.226562 233.167969 C 221.945312 233.167969 219.273438 230.496094 219.273438 227.207031 C 219.273438 223.9375 221.945312 221.277344 225.226562 221.277344 L 315.464844 221.277344 C 318.746094 221.277344 321.40625 223.9375 321.40625 227.207031 C 321.40625 230.496094 318.746094 233.167969 315.464844 233.167969 "/>
<g clip-path="url(#clip2)" clip-rule="nonzero">
<path style=" stroke:none;fill-rule:nonzero;fill:rgb(86.669922%,62.748718%,86.669922%);fill-opacity:1;" d="M 186.257812 85.136719 C 182.441406 85.136719 178.707031 85.445312 175.0625 86.042969 C 165.320312 73.5 150.09375 65.421875 132.984375 65.421875 C 110.460938 65.421875 91.210938 79.390625 83.40625 99.132812 C 79.113281 98.027344 74.605469 97.429688 69.976562 97.429688 C 40.542969 97.429688 16.691406 121.292969 16.691406 150.734375 C 16.691406 180.171875 40.542969 204.050781 69.976562 204.050781 C 71.132812 204.050781 72.277344 203.996094 73.421875 203.929688 C 83.460938 218.296875 100.105469 227.699219 118.945312 227.699219 C 125.460938 227.699219 131.707031 226.570312 137.519531 224.507812 C 137.132812 233.101562 135.085938 252.589844 124.460938 259.425781 C 124.460938 259.425781 165.34375 257.230469 180.460938 223.019531 C 182.375 223.179688 184.304688 223.269531 186.257812 223.269531 C 224.378906 223.269531 255.289062 192.34375 255.289062 154.203125 C 255.289062 116.054688 224.378906 85.136719 186.257812 85.136719 "/>
</g>
<path style=" stroke:none;fill-rule:nonzero;fill:rgb(100%,100%,100%);fill-opacity:1;" d="M 104.132812 153.578125 C 104.132812 160.511719 98.507812 166.136719 91.570312 166.136719 C 84.640625 166.136719 79.019531 160.511719 79.019531 153.578125 C 79.019531 146.636719 84.640625 141.007812 91.570312 141.007812 C 98.507812 141.007812 104.132812 146.636719 104.132812 153.578125 "/>
<path style=" stroke:none;fill-rule:nonzero;fill:rgb(100%,100%,100%);fill-opacity:1;" d="M 148.539062 153.578125 C 148.539062 160.511719 142.917969 166.136719 135.988281 166.136719 C 129.0625 166.136719 123.4375 160.511719 123.4375 153.578125 C 123.4375 146.636719 129.0625 141.007812 135.988281 141.007812 C 142.917969 141.007812 148.539062 146.636719 148.539062 153.578125 "/>
<path style=" stroke:none;fill-rule:nonzero;fill:rgb(100%,100%,100%);fill-opacity:1;" d="M 192.960938 153.578125 C 192.960938 160.511719 187.335938 166.136719 180.410156 166.136719 C 173.46875 166.136719 167.84375 160.511719 167.84375 153.578125 C 167.84375 146.636719 173.46875 141.007812 180.410156 141.007812 C 187.335938 141.007812 192.960938 146.636719 192.960938 153.578125 "/>
</g>
</svg>
