<?xml version="1.0" encoding="UTF-8"?>
<svg xmlns="http://www.w3.org/2000/svg" xmlns:xlink="http://www.w3.org/1999/xlink" width="375pt" height="374.999991pt" viewBox="0 0 375 374.999991" version="1.2">
<g id="surface1">
<path style=" stroke:none;fill-rule:nonzero;fill:rgb(97.648621%,45.098877%,74.899292%);fill-opacity:1;" d="M 249.839844 183.898438 C 284.398438 218.460938 284.398438 274.558594 249.839844 309.121094 C 215.28125 343.679688 159.179688 343.679688 124.621094 309.121094 C 90.058594 274.558594 90.058594 218.460938 124.621094 183.898438 C 159.179688 149.339844 215.28125 149.339844 249.839844 183.898438 Z M 249.839844 183.898438 "/>
<path style=" stroke:none;fill-rule:nonzero;fill:rgb(97.648621%,76.469421%,8.628845%);fill-opacity:1;" d="M 191.519531 124.800781 C 226.078125 159.359375 226.078125 215.460938 191.519531 250.019531 C 156.960938 284.578125 100.859375 284.578125 66.300781 250.019531 C 31.738281 215.460938 31.738281 159.359375 66.300781 124.800781 C 100.859375 90.238281 156.960938 90.179688 191.519531 124.800781 Z M 191.519531 124.800781 "/>
<path style=" stroke:none;fill-rule:nonzero;fill:rgb(15.689087%,75.689697%,87.838745%);fill-opacity:1;" d="M 308.160156 124.800781 C 342.71875 159.359375 342.71875 215.460938 308.160156 250.019531 C 273.601562 284.578125 217.5 284.578125 182.941406 250.019531 C 148.378906 215.460938 148.378906 159.359375 182.941406 124.800781 C 217.5 90.238281 273.539062 90.179688 308.160156 124.800781 Z M 308.160156 124.800781 "/>
<path style=" stroke:none;fill-rule:nonzero;fill:rgb(78.42865%,85.879517%,33.729553%);fill-opacity:1;" d="M 249.839844 65.640625 C 284.398438 100.199219 284.398438 156.300781 249.839844 190.859375 C 215.28125 225.421875 159.179688 225.421875 124.621094 190.859375 C 90.058594 156.300781 90.058594 100.199219 124.621094 65.640625 C 159.179688 31.078125 215.28125 31.078125 249.839844 65.640625 Z M 249.839844 65.640625 "/>
<path style=" stroke:none;fill-rule:nonzero;fill:rgb(97.648621%,45.098877%,74.899292%);fill-opacity:0.498;" d="M 249.839844 183.898438 C 250.980469 185.039062 252.058594 186.179688 253.140625 187.378906 C 252.058594 188.578125 250.980469 189.71875 249.839844 190.859375 C 215.28125 225.421875 159.179688 225.421875 124.621094 190.859375 C 123.480469 189.71875 122.398438 188.578125 121.320312 187.378906 C 122.398438 186.179688 123.480469 185.039062 124.621094 183.898438 C 159.179688 149.339844 215.28125 149.339844 249.839844 183.898438 Z M 249.839844 183.898438 "/>
<path style=" stroke:none;fill-rule:nonzero;fill:rgb(97.648621%,76.469421%,8.628845%);fill-opacity:0.498;" d="M 191.519531 124.800781 C 215.339844 148.621094 222.71875 182.578125 213.78125 212.761719 C 183.359375 222.300781 148.738281 215.039062 124.621094 190.859375 C 100.800781 167.039062 93.421875 133.078125 102.359375 102.898438 C 132.839844 93.359375 167.398438 100.621094 191.519531 124.800781 Z M 191.519531 124.800781 "/>
<path style=" stroke:none;fill-rule:nonzero;fill:rgb(97.648621%,76.469421%,8.628845%);fill-opacity:1;" d="M 191.519531 249.960938 C 190.140625 251.339844 188.699219 252.71875 187.199219 253.980469 C 185.761719 252.71875 184.320312 251.339844 182.878906 249.960938 C 148.320312 215.398438 148.320312 159.300781 182.878906 124.738281 C 184.261719 123.359375 185.699219 121.980469 187.199219 120.71875 C 188.640625 121.980469 190.078125 123.359375 191.519531 124.738281 C 226.078125 159.359375 226.078125 215.398438 191.519531 249.960938 Z M 191.519531 249.960938 "/>
<path style=" stroke:none;fill-rule:nonzero;fill:rgb(15.689087%,75.689697%,87.838745%);fill-opacity:0.498;" d="M 160.679688 212.699219 C 151.679688 182.578125 159.121094 148.558594 182.941406 124.738281 C 207.058594 100.621094 241.621094 93.300781 272.101562 102.839844 C 281.101562 132.960938 273.660156 166.980469 249.839844 190.800781 C 225.71875 214.980469 191.160156 222.238281 160.679688 212.699219 Z M 160.679688 212.699219 "/>
<path style=" stroke:none;fill-rule:nonzero;fill:rgb(97.648621%,45.098877%,74.899292%);fill-opacity:0.498;" d="M 182.941406 249.960938 C 159.121094 226.140625 151.738281 192.179688 160.679688 162 C 191.101562 152.460938 225.71875 159.71875 249.839844 183.898438 C 273.660156 207.71875 281.039062 241.679688 272.101562 271.859375 C 241.621094 281.398438 207.058594 274.078125 182.941406 249.960938 Z M 182.941406 249.960938 "/>
<path style=" stroke:none;fill-rule:nonzero;fill:rgb(97.648621%,45.098877%,74.899292%);fill-opacity:0.498;" d="M 213.78125 162.058594 C 222.78125 192.179688 215.339844 226.199219 191.519531 250.019531 C 167.398438 274.140625 132.839844 281.460938 102.359375 271.921875 C 93.359375 241.800781 100.800781 207.78125 124.621094 183.960938 C 148.738281 159.78125 183.300781 152.519531 213.78125 162.058594 Z M 213.78125 162.058594 "/>
</g>
</svg>
