<?xml version="1.0" encoding="UTF-8"?>
<svg xmlns="http://www.w3.org/2000/svg" xmlns:xlink="http://www.w3.org/1999/xlink" width="375pt" height="374.999991pt" viewBox="0 0 375 374.999991" version="1.2">
<defs>
<clipPath id="clip1">
  <path d="M 101 332 L 288 332 L 288 354 L 101 354 Z M 101 332 "/>
</clipPath>
<clipPath id="clip2">
  <path d="M 101 332 L 288 332 L 288 354 L 101 354 Z M 101 332 "/>
</clipPath>
<clipPath id="clip3">
  <path d="M 221 37.5 L 271 37.5 L 271 93 L 221 93 Z M 221 37.5 "/>
</clipPath>
</defs>
<g id="surface1">
<path style=" stroke:none;fill-rule:nonzero;fill:rgb(92.549133%,96.078491%,95.689392%);fill-opacity:1;" d="M 314.523438 299.683594 L 80.101562 299.683594 C 65.046875 299.683594 52.84375 287.457031 52.84375 272.371094 L 52.84375 124.894531 C 52.84375 112.816406 62.617188 103.046875 74.652344 103.046875 L 314.523438 103.046875 C 326.578125 103.046875 336.328125 112.816406 336.328125 124.894531 L 336.328125 277.835938 C 336.328125 289.910156 326.578125 299.683594 314.523438 299.683594 "/>
<path style=" stroke:none;fill-rule:nonzero;fill:rgb(82.348633%,85.879517%,85.488892%);fill-opacity:1;" d="M 336.328125 245.0625 L 336.328125 277.835938 C 336.328125 289.910156 326.578125 299.683594 314.523438 299.683594 L 80.101562 299.683594 C 65.046875 299.683594 52.84375 287.457031 52.84375 272.371094 L 52.84375 124.894531 C 52.84375 112.816406 62.597656 103.046875 74.652344 103.046875 L 118.265625 103.046875 L 118.265625 124.894531 C 118.265625 191.273438 171.949219 245.0625 238.199219 245.0625 L 336.328125 245.0625 "/>
<g clip-path="url(#clip1)" clip-rule="nonzero">
<path style=" stroke:none;fill-rule:nonzero;fill:rgb(92.549133%,96.078491%,95.689392%);fill-opacity:1;" d="M 287.265625 354.304688 L 101.910156 354.304688 L 101.910156 343.378906 C 101.910156 337.34375 106.785156 332.457031 112.8125 332.457031 L 276.363281 332.457031 C 282.386719 332.457031 287.265625 337.34375 287.265625 343.378906 L 287.265625 354.304688 "/>
</g>
<path style=" stroke:none;fill-rule:nonzero;fill:rgb(82.348633%,85.879517%,85.488892%);fill-opacity:1;" d="M 254.554688 332.457031 L 134.617188 332.457031 L 150.972656 299.683594 L 238.199219 299.683594 L 254.554688 332.457031 "/>
<path style=" stroke:none;fill-rule:nonzero;fill:rgb(56.079102%,58.81958%,59.21936%);fill-opacity:1;" d="M 134.617188 332.457031 L 150.972656 299.683594 L 238.199219 299.683594 Z M 134.617188 332.457031 "/>
<g clip-path="url(#clip2)" clip-rule="nonzero">
<path style=" stroke:none;fill-rule:nonzero;fill:rgb(82.348633%,85.879517%,85.488892%);fill-opacity:1;" d="M 287.265625 343.378906 L 287.265625 354.304688 L 101.910156 354.304688 L 101.910156 343.378906 C 101.910156 337.363281 106.828125 332.457031 112.8125 332.457031 L 113.792969 332.457031 C 115.984375 338.835938 122.035156 343.378906 129.167969 343.378906 L 287.265625 343.378906 "/>
</g>
<g clip-path="url(#clip3)" clip-rule="nonzero">
<path style=" stroke:none;fill-rule:nonzero;fill:rgb(36.859131%,39.608765%,45.489502%);fill-opacity:1;" d="M 265.457031 92.121094 C 262.457031 92.121094 260.007812 89.667969 260.007812 86.660156 L 260.007812 62.078125 C 260.007812 54.546875 253.894531 48.425781 246.378906 48.425781 C 238.859375 48.425781 232.75 54.546875 232.75 62.078125 L 232.75 64.8125 C 232.75 67.820312 230.300781 70.273438 227.296875 70.273438 C 224.292969 70.273438 221.84375 67.820312 221.84375 64.8125 L 221.84375 62.078125 C 221.84375 48.53125 232.855469 37.5 246.378906 37.5 C 259.898438 37.5 270.910156 48.53125 270.910156 62.078125 L 270.910156 86.660156 C 270.910156 89.667969 268.460938 92.121094 265.457031 92.121094 "/>
</g>
<path style=" stroke:none;fill-rule:nonzero;fill:rgb(70.979309%,90.589905%,93.728638%);fill-opacity:1;" d="M 309.070312 119.433594 C 309.070312 140.578125 292.015625 157.667969 270.910156 157.667969 C 257.941406 157.667969 246.546875 151.160156 239.628906 141.28125 L 214.96875 141.28125 C 208.046875 151.160156 196.652344 157.667969 183.683594 157.667969 C 162.578125 157.667969 145.523438 140.578125 145.523438 119.433594 C 145.523438 98.289062 162.578125 81.195312 183.683594 81.195312 L 270.910156 81.195312 C 292.015625 81.195312 309.070312 98.289062 309.070312 119.433594 "/>
<path style=" stroke:none;fill-rule:nonzero;fill:rgb(70.979309%,90.589905%,93.728638%);fill-opacity:1;" d="M 238.199219 59.347656 L 216.394531 59.347656 L 216.394531 81.195312 L 238.199219 81.195312 L 238.199219 59.347656 "/>
<path style=" stroke:none;fill-rule:nonzero;fill:rgb(39.99939%,80.389404%,88.238525%);fill-opacity:1;" d="M 309.070312 119.433594 C 309.070312 140.578125 292.015625 157.667969 270.910156 157.667969 C 257.941406 157.667969 246.546875 151.160156 239.628906 141.28125 L 214.96875 141.28125 C 208.046875 151.160156 196.652344 157.667969 183.683594 157.667969 C 162.578125 157.667969 145.523438 140.578125 145.523438 119.433594 C 145.523438 98.289062 162.578125 81.195312 183.683594 81.195312 L 189.136719 81.195312 L 189.136719 81.859375 C 189.136719 90.542969 196.164062 97.582031 204.832031 97.582031 L 270.910156 97.582031 C 279.535156 97.582031 286.945312 102.597656 290.480469 109.808594 C 293.25 115.507812 298.65625 119.433594 304.984375 119.433594 L 309.070312 119.433594 "/>
<path style=" stroke:none;fill-rule:nonzero;fill:rgb(39.99939%,80.389404%,88.238525%);fill-opacity:1;" d="M 238.199219 75.734375 L 238.199219 81.195312 L 216.394531 81.195312 L 216.394531 59.347656 L 221.84375 59.347656 C 221.84375 68.417969 229.148438 75.734375 238.199219 75.734375 "/>
<path style=" stroke:none;fill-rule:nonzero;fill:rgb(93.728638%,22.749329%,28.62854%);fill-opacity:1;" d="M 270.910156 141.28125 C 267.90625 141.28125 265.457031 138.828125 265.457031 135.820312 C 265.457031 132.808594 267.90625 130.355469 270.910156 130.355469 C 273.914062 130.355469 276.363281 132.808594 276.363281 135.820312 C 276.363281 138.828125 273.914062 141.28125 270.910156 141.28125 "/>
<path style=" stroke:none;fill-rule:nonzero;fill:rgb(93.728638%,22.749329%,28.62854%);fill-opacity:1;" d="M 287.265625 124.894531 C 284.261719 124.894531 281.8125 122.441406 281.8125 119.433594 C 281.8125 116.425781 284.261719 113.96875 287.265625 113.96875 C 290.269531 113.96875 292.714844 116.425781 292.714844 119.433594 C 292.714844 122.441406 290.269531 124.894531 287.265625 124.894531 "/>
<path style=" stroke:none;fill-rule:nonzero;fill:rgb(36.859131%,39.608765%,45.489502%);fill-opacity:1;" d="M 194.585938 113.96875 L 189.136719 113.96875 L 189.136719 108.507812 C 189.136719 105.5 186.6875 103.046875 183.683594 103.046875 C 180.679688 103.046875 178.230469 105.5 178.230469 108.507812 L 178.230469 113.96875 L 172.78125 113.96875 C 169.777344 113.96875 167.328125 116.425781 167.328125 119.433594 C 167.328125 122.441406 169.777344 124.894531 172.78125 124.894531 L 178.230469 124.894531 L 178.230469 130.355469 C 178.230469 133.363281 180.679688 135.820312 183.683594 135.820312 C 186.6875 135.820312 189.136719 133.363281 189.136719 130.355469 L 189.136719 124.894531 L 194.585938 124.894531 C 197.589844 124.894531 200.039062 122.441406 200.039062 119.433594 C 200.039062 116.425781 197.589844 113.96875 194.585938 113.96875 "/>
<path style=" stroke:none;fill-rule:nonzero;fill:rgb(96.859741%,59.609985%,5.879211%);fill-opacity:1;" d="M 260.007812 124.894531 C 257.003906 124.894531 254.554688 122.441406 254.554688 119.433594 C 254.554688 116.425781 257.003906 113.96875 260.007812 113.96875 C 263.007812 113.96875 265.457031 116.425781 265.457031 119.433594 C 265.457031 122.441406 263.007812 124.894531 260.007812 124.894531 "/>
<path style=" stroke:none;fill-rule:nonzero;fill:rgb(36.859131%,39.608765%,45.489502%);fill-opacity:1;" d="M 216.394531 124.894531 C 213.390625 124.894531 210.941406 122.441406 210.941406 119.433594 C 210.941406 116.425781 213.390625 113.96875 216.394531 113.96875 C 219.394531 113.96875 221.84375 116.425781 221.84375 119.433594 C 221.84375 122.441406 219.394531 124.894531 216.394531 124.894531 "/>
<path style=" stroke:none;fill-rule:nonzero;fill:rgb(36.859131%,39.608765%,45.489502%);fill-opacity:1;" d="M 238.199219 124.894531 C 235.199219 124.894531 232.75 122.441406 232.75 119.433594 C 232.75 116.425781 235.199219 113.96875 238.199219 113.96875 C 241.203125 113.96875 243.652344 116.425781 243.652344 119.433594 C 243.652344 122.441406 241.203125 124.894531 238.199219 124.894531 "/>
<path style=" stroke:none;fill-rule:nonzero;fill:rgb(96.859741%,59.609985%,5.879211%);fill-opacity:1;" d="M 276.363281 108.507812 C 273.359375 108.507812 270.910156 106.054688 270.910156 103.046875 C 270.910156 100.039062 273.359375 97.582031 276.363281 97.582031 C 279.363281 97.582031 281.8125 100.039062 281.8125 103.046875 C 281.8125 106.054688 279.363281 108.507812 276.363281 108.507812 "/>
<path style=" stroke:none;fill-rule:nonzero;fill:rgb(97.24884%,92.549133%,3.138733%);fill-opacity:1;" d="M 275.042969 265.585938 L 282.75 304.207031 L 290.460938 296.484375 L 313.585938 319.65625 L 329.003906 304.207031 L 305.878906 281.035156 L 313.585938 273.3125 L 275.042969 265.585938 "/>
<path style=" stroke:none;fill-rule:nonzero;fill:rgb(98.039246%,80.778503%,3.138733%);fill-opacity:1;" d="M 275.042969 265.585938 L 282.75 304.207031 L 290.460938 296.484375 L 313.585938 319.65625 L 329.003906 304.207031 L 316.949219 292.128906 C 312.5625 296.332031 305.644531 296.25 301.363281 291.960938 L 275.042969 265.585938 "/>
<path style=" stroke:none;fill-rule:nonzero;fill:rgb(97.648621%,68.629456%,4.309082%);fill-opacity:1;" d="M 172.78125 277.835938 L 140.070312 277.835938 L 140.070312 245.0625 L 172.78125 245.0625 L 172.78125 277.835938 "/>
<path style=" stroke:none;fill-rule:nonzero;fill:rgb(94.898987%,33.329773%,42.349243%);fill-opacity:1;" d="M 238.199219 245.0625 L 205.492188 245.0625 L 205.492188 212.289062 L 238.199219 212.289062 L 238.199219 245.0625 "/>
<path style=" stroke:none;fill-rule:nonzero;fill:rgb(94.898987%,33.329773%,42.349243%);fill-opacity:1;" d="M 172.78125 245.0625 L 140.070312 245.0625 L 140.070312 212.289062 L 172.78125 212.289062 L 172.78125 245.0625 "/>
<path style=" stroke:none;fill-rule:nonzero;fill:rgb(97.24884%,92.549133%,3.138733%);fill-opacity:1;" d="M 172.78125 212.289062 L 140.070312 212.289062 L 140.070312 179.515625 L 172.78125 179.515625 L 172.78125 212.289062 "/>
<path style=" stroke:none;fill-rule:nonzero;fill:rgb(94.898987%,33.329773%,42.349243%);fill-opacity:1;" d="M 205.492188 212.289062 L 172.78125 212.289062 L 172.78125 179.515625 L 205.492188 179.515625 L 205.492188 212.289062 "/>
<path style=" stroke:none;fill-rule:nonzero;fill:rgb(97.24884%,92.549133%,3.138733%);fill-opacity:1;" d="M 238.199219 212.289062 L 205.492188 212.289062 L 205.492188 179.515625 L 238.199219 179.515625 L 238.199219 212.289062 "/>
<path style=" stroke:none;fill-rule:nonzero;fill:rgb(97.24884%,92.549133%,3.138733%);fill-opacity:1;" d="M 270.910156 245.0625 L 238.199219 245.0625 L 238.199219 212.289062 L 270.910156 212.289062 L 270.910156 245.0625 "/>
<path style=" stroke:none;fill-rule:nonzero;fill:rgb(94.898987%,33.329773%,42.349243%);fill-opacity:1;" d="M 303.621094 245.0625 L 270.910156 245.0625 L 270.910156 212.289062 L 303.621094 212.289062 L 303.621094 245.0625 "/>
<path style=" stroke:none;fill-rule:nonzero;fill:rgb(94.898987%,33.329773%,42.349243%);fill-opacity:1;" d="M 140.070312 277.835938 L 107.359375 277.835938 L 107.359375 245.0625 L 140.070312 245.0625 L 140.070312 277.835938 "/>
<path style=" stroke:none;fill-rule:nonzero;fill:rgb(97.648621%,68.629456%,4.309082%);fill-opacity:1;" d="M 107.359375 277.835938 L 74.652344 277.835938 L 74.652344 245.0625 L 107.359375 245.0625 L 107.359375 277.835938 "/>
<path style=" stroke:none;fill-rule:nonzero;fill:rgb(94.898987%,33.329773%,42.349243%);fill-opacity:1;" d="M 107.359375 228.675781 C 107.359375 245.0625 91.007812 255.984375 91.007812 255.984375 C 91.007812 255.984375 74.652344 245.0625 74.652344 228.675781 C 74.652344 219.628906 81.976562 212.289062 91.007812 212.289062 C 100.035156 212.289062 107.359375 219.628906 107.359375 228.675781 "/>
<path style=" stroke:none;fill-rule:nonzero;fill:rgb(93.728638%,22.749329%,28.62854%);fill-opacity:1;" d="M 238.199219 245.0625 L 205.492188 245.0625 L 205.492188 240.515625 C 215.902344 243.484375 226.851562 245.0625 238.199219 245.0625 "/>
<path style=" stroke:none;fill-rule:nonzero;fill:rgb(93.728638%,22.749329%,28.62854%);fill-opacity:1;" d="M 172.78125 225.625 L 172.78125 245.0625 L 140.070312 245.0625 L 140.070312 212.289062 L 155.894531 212.289062 C 161.109375 217.261719 166.734375 221.742188 172.78125 225.625 "/>
<path style=" stroke:none;fill-rule:nonzero;fill:rgb(97.648621%,68.629456%,4.309082%);fill-opacity:1;" d="M 155.894531 212.289062 L 140.070312 212.289062 L 140.070312 194.003906 C 144.691406 200.597656 149.996094 206.71875 155.894531 212.289062 "/>
<path style=" stroke:none;fill-rule:nonzero;fill:rgb(93.728638%,22.749329%,28.62854%);fill-opacity:1;" d="M 105.230469 238.726562 C 100.929688 249.371094 91.007812 255.984375 91.007812 255.984375 C 91.007812 255.984375 74.652344 245.0625 74.652344 228.675781 C 74.652344 222.722656 77.761719 217.539062 82.507812 214.699219 C 80.976562 217.152344 80.101562 220.097656 80.101562 223.214844 C 80.101562 225.453125 80.421875 227.585938 80.933594 229.550781 C 83.914062 241.027344 96.839844 243.972656 105.230469 238.726562 "/>
<path style=" stroke:none;fill-rule:nonzero;fill:rgb(39.99939%,80.389404%,88.238525%);fill-opacity:1;" d="M 287.265625 228.675781 C 284.261719 228.675781 281.8125 226.222656 281.8125 223.214844 L 281.8125 174.054688 C 281.8125 171.046875 284.261719 168.589844 287.265625 168.589844 C 290.269531 168.589844 292.714844 171.046875 292.714844 174.054688 L 292.714844 223.214844 C 292.714844 226.222656 290.269531 228.675781 287.265625 228.675781 "/>
<path style=" stroke:none;fill-rule:nonzero;fill:rgb(94.898987%,33.329773%,42.349243%);fill-opacity:1;" d="M 314.523438 195.902344 L 287.265625 195.902344 L 287.265625 174.054688 L 314.523438 174.054688 L 309.070312 184.976562 L 314.523438 195.902344 "/>
<path style=" stroke:none;fill-rule:nonzero;fill:rgb(98.039246%,80.778503%,3.138733%);fill-opacity:1;" d="M 153.699219 220.910156 L 145.332031 162.679688 L 107.550781 184.53125 Z M 153.699219 220.910156 "/>
<path style=" stroke:none;fill-rule:nonzero;fill:rgb(92.549133%,96.078491%,95.689392%);fill-opacity:1;" d="M 52.84375 45.886719 C 63.277344 39.847656 76.609375 43.453125 82.636719 53.886719 L 88.089844 63.339844 L 50.308594 85.1875 L 44.859375 75.734375 C 38.832031 65.300781 42.410156 51.921875 52.84375 45.886719 "/>
<path style=" stroke:none;fill-rule:nonzero;fill:rgb(94.898987%,33.329773%,42.349243%);fill-opacity:1;" d="M 145.308594 162.679688 L 131.191406 170.875 L 121.691406 176.335938 L 107.574219 184.53125 L 50.332031 85.1875 L 64.449219 76.992188 L 73.949219 71.53125 L 88.066406 63.339844 L 145.308594 162.679688 "/>
<path style=" stroke:none;fill-rule:nonzero;fill:rgb(56.079102%,58.81958%,59.21936%);fill-opacity:1;" d="M 126.015625 199.082031 L 148.675781 185.980469 L 153.699219 220.910156 Z M 126.015625 199.082031 "/>
<path style=" stroke:none;fill-rule:nonzero;fill:rgb(97.648621%,68.629456%,4.309082%);fill-opacity:1;" d="M 143.308594 189.074219 L 126.015625 199.082031 L 107.550781 184.53125 L 127.65625 172.902344 C 132.703125 178.46875 137.878906 183.890625 143.308594 189.074219 "/>
<path style=" stroke:none;fill-rule:nonzero;fill:rgb(82.348633%,85.879517%,85.488892%);fill-opacity:1;" d="M 52.84375 45.886719 C 53.375 45.585938 53.929688 45.414062 54.460938 45.160156 C 52.632812 50.835938 53.078125 57.234375 56.316406 62.828125 L 64.492188 76.992188 L 50.308594 85.1875 L 44.859375 75.734375 C 38.832031 65.300781 42.410156 51.921875 52.84375 45.886719 "/>
<path style=" stroke:none;fill-rule:nonzero;fill:rgb(93.728638%,22.749329%,28.62854%);fill-opacity:1;" d="M 89.917969 121.160156 L 64.492188 76.992188 L 50.332031 85.1875 L 107.550781 184.53125 L 127.65625 172.902344 C 113.34375 157.046875 100.632812 139.746094 89.917969 121.160156 "/>
<path style=" stroke:none;fill-rule:nonzero;fill:rgb(36.859131%,39.608765%,45.489502%);fill-opacity:1;" d="M 150.015625 195.175781 L 153.699219 220.910156 L 126.015625 199.082031 L 143.308594 189.074219 C 145.5 191.164062 147.757812 193.148438 150.015625 195.175781 "/>
<path style=" stroke:none;fill-rule:nonzero;fill:rgb(39.99939%,80.389404%,88.238525%);fill-opacity:1;" d="M 131.191406 170.875 L 121.691406 176.335938 L 64.449219 76.992188 L 73.949219 71.53125 L 131.191406 170.875 "/>
<path style=" stroke:none;fill-rule:nonzero;fill:rgb(28.62854%,72.549438%,85.488892%);fill-opacity:1;" d="M 127.632812 172.902344 L 121.691406 176.335938 L 89.917969 121.117188 C 100.652344 139.746094 113.34375 157.070312 127.632812 172.902344 "/>
</g>
</svg>
