<?xml version="1.0" encoding="UTF-8"?>
<svg xmlns="http://www.w3.org/2000/svg" xmlns:xlink="http://www.w3.org/1999/xlink" width="375pt" height="374.999991pt" viewBox="0 0 375 374.999991" version="1.2">
<defs>
<clipPath id="clip1">
  <path d="M 76.226562 54 L 298 54 L 298 319 L 76.226562 319 Z M 76.226562 54 "/>
</clipPath>
<clipPath id="clip2">
  <path d="M 81 37.5 L 298.976562 37.5 L 298.976562 337.5 L 81 337.5 Z M 81 37.5 "/>
</clipPath>
<clipPath id="clip3">
  <path d="M 76.226562 54 L 298 54 L 298 319 L 76.226562 319 Z M 76.226562 54 "/>
</clipPath>
</defs>
<g id="surface1">
<g clip-path="url(#clip1)" clip-rule="nonzero">
<path style=" stroke:none;fill-rule:nonzero;fill:rgb(92.939758%,92.939758%,92.939758%);fill-opacity:1;" d="M 297.558594 63.164062 C 297.558594 63.128906 297.539062 63.097656 297.53125 63.066406 C 297.523438 63.007812 297.511719 62.953125 297.492188 62.902344 C 297.472656 62.855469 297.453125 62.816406 297.425781 62.777344 C 297.402344 62.734375 297.367188 62.6875 297.335938 62.648438 C 297.296875 62.605469 297.25 62.570312 297.207031 62.539062 C 297.171875 62.519531 297.140625 62.492188 297.109375 62.472656 C 297.050781 62.441406 296.984375 62.429688 296.914062 62.414062 C 296.886719 62.410156 296.867188 62.394531 296.84375 62.394531 C 296.824219 62.394531 296.808594 62.402344 296.796875 62.402344 C 296.777344 62.402344 296.757812 62.390625 296.738281 62.394531 C 236.285156 63.882812 175.15625 61.3125 115.039062 54.757812 L 114.273438 54.675781 L 114.164062 55.433594 C 112.765625 65.226562 110.9375 75.066406 109.171875 84.578125 C 107.402344 94.109375 105.570312 103.96875 104.167969 113.792969 L 101.753906 130.714844 C 100.03125 142.804688 98.074219 159.414062 95.8125 178.65625 C 90.496094 223.792969 83.886719 279.960938 76.425781 309.175781 C 76.425781 309.183594 76.425781 309.183594 76.425781 309.1875 C 76.425781 309.195312 76.417969 309.195312 76.417969 309.203125 C 76.40625 309.253906 76.417969 309.304688 76.417969 309.351562 C 76.417969 309.402344 76.40625 309.453125 76.417969 309.5 C 76.425781 309.550781 76.453125 309.597656 76.472656 309.648438 C 76.492188 309.695312 76.496094 309.742188 76.523438 309.785156 C 76.550781 309.832031 76.59375 309.863281 76.628906 309.902344 C 76.660156 309.933594 76.683594 309.972656 76.722656 310.007812 C 76.769531 310.039062 76.820312 310.058594 76.875 310.078125 C 76.914062 310.097656 76.953125 310.125 76.996094 310.136719 C 77.003906 310.136719 77.011719 310.136719 77.011719 310.136719 C 77.015625 310.136719 77.015625 310.144531 77.015625 310.144531 C 84.316406 311.753906 91.804688 310.519531 99.039062 309.324219 C 103.640625 308.566406 108.398438 307.777344 113.050781 307.738281 C 117.839844 307.707031 122.722656 308.449219 127.429688 309.175781 L 128.832031 309.390625 C 156.980469 313.6875 185.859375 315.371094 213.835938 317 L 218.035156 317 C 224.742188 317 231.496094 317.449219 238.027344 317.882812 C 244.558594 318.316406 251.261719 318.757812 258 318.757812 C 260.378906 318.757812 262.765625 318.707031 265.144531 318.570312 C 265.175781 318.570312 265.203125 318.550781 265.234375 318.546875 C 265.300781 318.53125 265.359375 318.527344 265.417969 318.5 C 265.457031 318.480469 265.488281 318.453125 265.519531 318.433594 C 265.566406 318.402344 265.609375 318.375 265.65625 318.332031 C 265.6875 318.296875 265.707031 318.265625 265.734375 318.226562 C 265.765625 318.183594 265.792969 318.136719 265.820312 318.085938 C 265.839844 318.039062 265.84375 318 265.859375 317.953125 C 265.863281 317.921875 265.882812 317.890625 265.890625 317.851562 C 267.417969 302.410156 273.625 271.078125 279.105469 243.429688 C 283.050781 223.511719 286.78125 204.703125 288.390625 193.757812 L 288.679688 191.84375 C 289.5625 185.902344 290.472656 179.757812 291.050781 173.667969 C 292.1875 161.746094 292.109375 149.578125 292.03125 137.816406 C 292.007812 134.039062 291.980469 130.128906 292 126.292969 C 292.058594 110.921875 294.28125 91.628906 296.242188 74.605469 C 296.699219 70.65625 297.132812 66.84375 297.53125 63.257812 C 297.53125 63.238281 297.523438 63.226562 297.523438 63.207031 C 297.550781 63.195312 297.558594 63.183594 297.558594 63.164062 Z M 98.472656 286.167969 C 96.179688 286.167969 94.3125 284.3125 94.3125 282.011719 C 94.3125 279.714844 96.171875 277.855469 98.472656 277.855469 C 100.773438 277.855469 102.632812 279.714844 102.632812 282.011719 C 102.632812 284.3125 100.765625 286.167969 98.472656 286.167969 Z M 102.632812 253.335938 C 100.335938 253.335938 98.472656 251.480469 98.472656 249.183594 C 98.472656 246.890625 100.332031 245.027344 102.632812 245.027344 C 104.933594 245.027344 106.792969 246.882812 106.792969 249.183594 C 106.792969 251.472656 104.925781 253.335938 102.632812 253.335938 Z M 106.792969 220.5 C 104.496094 220.5 102.632812 218.644531 102.632812 216.34375 C 102.632812 214.050781 104.492188 212.1875 106.792969 212.1875 C 109.09375 212.1875 110.953125 214.046875 110.953125 216.34375 C 110.953125 218.644531 109.085938 220.5 106.792969 220.5 Z M 110.953125 187.667969 C 108.65625 187.667969 106.792969 185.8125 106.792969 183.511719 C 106.792969 181.214844 108.652344 179.355469 110.953125 179.355469 C 113.246094 179.355469 115.113281 181.214844 115.113281 183.511719 C 115.113281 185.8125 113.246094 187.667969 110.953125 187.667969 Z M 115.105469 154.835938 C 112.8125 154.835938 110.945312 152.980469 110.945312 150.683594 C 110.945312 148.390625 112.804688 146.527344 115.105469 146.527344 C 117.40625 146.527344 119.265625 148.382812 119.265625 150.683594 C 119.265625 152.972656 117.40625 154.835938 115.105469 154.835938 Z M 119.265625 122 C 116.96875 122 115.105469 120.144531 115.105469 117.84375 C 115.105469 115.550781 116.964844 113.6875 119.265625 113.6875 C 121.558594 113.6875 123.425781 115.546875 123.425781 117.84375 C 123.425781 120.144531 121.566406 122 119.265625 122 Z M 123.425781 89.167969 C 121.128906 89.167969 119.265625 87.3125 119.265625 85.011719 C 119.265625 82.714844 121.125 80.855469 123.425781 80.855469 C 125.726562 80.855469 127.585938 82.714844 127.585938 85.011719 C 127.585938 87.3125 125.71875 89.167969 123.425781 89.167969 Z M 123.425781 89.167969 "/>
</g>
<g clip-path="url(#clip2)" clip-rule="nonzero">
<path style=" stroke:none;fill-rule:nonzero;fill:rgb(0%,0%,0%);fill-opacity:1;" d="M 86.941406 83.242188 C 86.628906 82.410156 86.050781 81.695312 85.726562 80.871094 C 85.402344 80.039062 85.414062 78.960938 86.117188 78.414062 C 86.472656 78.136719 86.933594 78.050781 87.34375 77.855469 C 87.753906 77.664062 88.136719 77.257812 88.046875 76.816406 C 86.664062 77.480469 84.894531 77.234375 83.738281 76.222656 C 83.582031 76.085938 83.433594 75.914062 83.425781 75.714844 C 83.417969 75.480469 83.613281 75.292969 83.710938 75.078125 C 83.9375 74.578125 83.640625 73.988281 83.222656 73.628906 C 82.808594 73.273438 82.28125 73.066406 81.851562 72.726562 C 80.820312 71.910156 80.78125 69.910156 81.457031 68.777344 C 108.175781 60.402344 134.238281 49.933594 159.320312 37.5 C 157.957031 39.273438 156.871094 40.472656 155.507812 42.246094 C 156.996094 41.851562 158.492188 41.460938 159.980469 41.066406 C 160.492188 40.929688 161.023438 40.792969 161.558594 40.863281 C 162.085938 40.933594 162.617188 41.257812 162.765625 41.773438 C 162.839844 42.03125 162.820312 42.324219 162.96875 42.546875 C 163.363281 43.117188 164.410156 42.597656 164.910156 43.085938 C 165.257812 43.421875 165.101562 43.992188 165.191406 44.46875 C 165.355469 45.292969 166.289062 45.796875 166.453125 46.628906 C 166.632812 47.527344 165.855469 48.304688 165.144531 48.890625 C 167.980469 48.664062 170.695312 50.449219 172.023438 52.953125 C 158.0625 61.796875 142.664062 68.109375 127.273438 74.144531 C 114.320312 79.207031 101.300781 84.117188 88.222656 88.855469 C 87.15625 87.550781 87.527344 84.824219 86.941406 83.242188 Z M 295.976562 299.894531 C 295.894531 299.351562 295.808594 298.792969 295.5625 298.292969 C 295.210938 297.597656 294.582031 297.089844 294.085938 296.488281 C 292.773438 294.871094 292.664062 292.726562 292.5 290.648438 C 263.207031 301.757812 232.8125 309.988281 201.90625 315.164062 C 203.976562 315.890625 205.699219 316.53125 207.855469 316.910156 C 206.574219 317.855469 205.292969 318.804688 204.015625 319.753906 C 205.019531 320.011719 206.027344 320.273438 207.035156 320.527344 C 206.625 321.449219 206.222656 322.371094 205.8125 323.292969 C 206.433594 323.050781 207.167969 323.472656 207.453125 324.070312 C 207.738281 324.667969 207.679688 325.375 207.523438 326.027344 C 207.359375 326.695312 207.140625 327.53125 207.671875 327.980469 C 207.894531 328.164062 208.199219 328.222656 208.421875 328.402344 C 208.738281 328.65625 208.832031 329.097656 208.914062 329.492188 C 209.488281 332.234375 210.792969 335.242188 212.488281 337.46875 C 241.992188 332.433594 270.96875 324.332031 298.792969 313.324219 C 297.746094 309.011719 296.640625 304.277344 295.976562 299.894531 Z M 292.335938 95.707031 C 292.695312 95.6875 292.96875 95.382812 292.957031 95.027344 C 292.9375 94.667969 292.628906 94.394531 292.273438 94.410156 C 240.21875 97.175781 187.539062 95.832031 135.695312 90.421875 C 135.339844 90.390625 135.019531 90.644531 134.980469 91 C 134.941406 91.355469 135.203125 91.675781 135.558594 91.714844 C 169.96875 95.304688 204.742188 97.109375 239.464844 97.109375 C 257.117188 97.105469 274.769531 96.644531 292.335938 95.707031 Z M 291.933594 141.488281 C 291.960938 141.128906 291.695312 140.816406 291.332031 140.792969 C 238.070312 136.933594 184.007812 135.8125 130.640625 137.460938 C 130.28125 137.472656 129.996094 137.773438 130.007812 138.128906 C 130.023438 138.488281 130.320312 138.773438 130.679688 138.757812 C 184.007812 137.117188 238.027344 138.242188 291.238281 142.089844 C 291.253906 142.089844 291.273438 142.089844 291.285156 142.089844 C 291.628906 142.089844 291.914062 141.824219 291.933594 141.488281 Z M 288.074219 195.097656 C 288.125 194.742188 287.886719 194.414062 287.527344 194.355469 C 234.011719 186.363281 179.496094 184.105469 125.496094 187.628906 C 125.140625 187.65625 124.867188 187.960938 124.894531 188.316406 C 124.917969 188.675781 125.21875 188.933594 125.582031 188.921875 C 179.492188 185.402344 233.914062 187.664062 287.332031 195.644531 C 287.367188 195.648438 287.398438 195.648438 287.429688 195.648438 C 287.75 195.648438 288.023438 195.421875 288.074219 195.097656 Z M 279.9375 238.570312 C 279.9375 238.214844 279.652344 237.921875 279.292969 237.914062 C 228.882812 237.566406 171.171875 234.703125 120.972656 230.058594 C 120.617188 230.027344 120.296875 230.285156 120.265625 230.644531 C 120.234375 231 120.492188 231.316406 120.851562 231.351562 C 171.085938 236 228.828125 238.863281 279.28125 239.214844 C 279.28125 239.214844 279.28125 239.214844 279.285156 239.214844 C 279.644531 239.214844 279.929688 238.929688 279.9375 238.570312 Z M 270.175781 281.929688 C 270.53125 281.890625 270.792969 281.570312 270.753906 281.214844 C 270.714844 280.855469 270.394531 280.597656 270.039062 280.636719 C 255.535156 282.214844 231.371094 281.742188 213.730469 281.390625 C 210.460938 281.324219 207.417969 281.265625 204.710938 281.226562 L 114.800781 279.851562 C 114.800781 279.851562 114.792969 279.851562 114.785156 279.851562 C 114.4375 279.851562 114.144531 280.136719 114.136719 280.488281 C 114.128906 280.84375 114.417969 281.144531 114.773438 281.148438 L 204.683594 282.527344 C 207.394531 282.566406 210.4375 282.628906 213.699219 282.6875 C 221.847656 282.851562 231.398438 283.039062 240.742188 283.039062 C 251.664062 283.046875 262.316406 282.785156 270.175781 281.929688 Z M 270.175781 281.929688 "/>
</g>
<path style=" stroke:none;fill-rule:nonzero;fill:rgb(35.289001%,35.688782%,35.688782%);fill-opacity:1;" d="M 110.542969 307.585938 C 110.496094 307.585938 110.457031 307.578125 110.414062 307.570312 C 110.0625 307.5 109.832031 307.15625 109.90625 306.804688 C 117.886719 268.007812 133.175781 106.746094 137.671875 58.246094 C 137.703125 57.890625 138.015625 57.625 138.378906 57.664062 C 138.738281 57.695312 138.996094 58.011719 138.964844 58.371094 C 134.46875 106.890625 119.171875 268.207031 111.179688 307.070312 C 111.113281 307.375 110.847656 307.585938 110.542969 307.585938 Z M 196.480469 214.511719 C 212.757812 212.835938 229.3125 211.933594 245.675781 211.84375 C 246.390625 211.835938 246.976562 211.253906 246.96875 210.539062 C 246.964844 209.824219 246.386719 209.246094 245.671875 209.246094 C 245.671875 209.246094 245.664062 209.246094 245.664062 209.246094 C 229.214844 209.335938 212.574219 210.242188 196.214844 211.929688 C 195.5 212 194.980469 212.644531 195.058594 213.351562 C 195.128906 214.019531 195.6875 214.511719 196.351562 214.511719 C 196.390625 214.519531 196.433594 214.519531 196.480469 214.511719 Z M 264.226562 216.164062 C 264.253906 215.449219 263.695312 214.84375 262.972656 214.816406 C 248.050781 214.296875 232.90625 214.234375 217.976562 214.644531 C 217.261719 214.664062 216.6875 215.257812 216.707031 215.972656 C 216.726562 216.6875 217.300781 217.265625 218.039062 217.242188 C 232.917969 216.835938 248.003906 216.894531 262.875 217.414062 C 262.886719 217.414062 262.90625 217.414062 262.921875 217.414062 C 263.628906 217.414062 264.207031 216.863281 264.226562 216.164062 Z M 264.226562 216.164062 "/>
<g clip-path="url(#clip3)" clip-rule="nonzero">
<path style=" stroke:none;fill-rule:nonzero;fill:rgb(78.819275%,40.779114%,78.819275%);fill-opacity:1;" d="M 297.414062 63.164062 C 297.414062 63.136719 297.402344 63.109375 297.394531 63.078125 C 297.386719 63.03125 297.382812 62.988281 297.363281 62.949219 C 297.347656 62.910156 297.324219 62.871094 297.304688 62.835938 C 297.285156 62.804688 297.265625 62.773438 297.238281 62.742188 C 297.207031 62.703125 297.167969 62.675781 297.121094 62.644531 C 297.09375 62.625 297.074219 62.609375 297.050781 62.597656 C 297 62.570312 296.945312 62.558594 296.894531 62.546875 C 296.875 62.539062 296.855469 62.527344 296.835938 62.527344 C 296.824219 62.527344 296.808594 62.53125 296.796875 62.53125 C 296.777344 62.53125 296.765625 62.527344 296.75 62.527344 C 236.292969 64.011719 175.15625 61.441406 115.035156 54.890625 L 114.410156 54.824219 L 114.320312 55.449219 C 112.921875 65.242188 111.09375 75.085938 109.328125 84.597656 C 107.558594 94.128906 105.726562 103.980469 104.328125 113.796875 L 101.917969 130.722656 C 100.195312 142.804688 98.238281 159.421875 95.976562 178.65625 C 90.652344 223.796875 84.042969 279.972656 76.582031 309.195312 C 76.582031 309.203125 76.582031 309.203125 76.582031 309.207031 C 76.582031 309.214844 76.574219 309.214844 76.574219 309.222656 C 76.570312 309.257812 76.574219 309.304688 76.574219 309.34375 C 76.574219 309.382812 76.570312 309.429688 76.574219 309.46875 C 76.582031 309.511719 76.601562 309.550781 76.621094 309.589844 C 76.632812 309.628906 76.640625 309.667969 76.667969 309.703125 C 76.691406 309.742188 76.722656 309.765625 76.75 309.796875 C 76.777344 309.824219 76.796875 309.855469 76.828125 309.882812 C 76.867188 309.910156 76.914062 309.921875 76.953125 309.941406 C 76.984375 309.953125 77.015625 309.980469 77.050781 309.988281 C 77.054688 309.988281 77.054688 309.988281 77.0625 309.988281 C 77.0625 309.988281 77.070312 309.988281 77.070312 309.992188 C 84.34375 311.605469 91.816406 310.371094 99.039062 309.175781 C 103.644531 308.414062 108.410156 307.628906 113.078125 307.589844 C 117.894531 307.546875 122.769531 308.296875 127.488281 309.027344 L 128.882812 309.238281 C 157.035156 313.539062 185.90625 315.222656 213.867188 316.84375 L 218.066406 316.84375 C 224.78125 316.84375 231.535156 317.292969 238.066406 317.726562 C 244.597656 318.164062 251.292969 318.605469 258.027344 318.605469 C 260.398438 318.605469 262.785156 318.550781 265.164062 318.414062 C 265.1875 318.414062 265.214844 318.402344 265.242188 318.394531 C 265.292969 318.390625 265.34375 318.375 265.390625 318.355469 C 265.421875 318.34375 265.449219 318.324219 265.476562 318.304688 C 265.515625 318.277344 265.550781 318.253906 265.585938 318.222656 C 265.609375 318.195312 265.628906 318.167969 265.648438 318.136719 C 265.675781 318.097656 265.703125 318.066406 265.722656 318.019531 C 265.734375 317.988281 265.746094 317.949219 265.753906 317.910156 C 265.761719 317.882812 265.773438 317.855469 265.78125 317.824219 C 267.308594 302.375 273.515625 271.039062 278.992188 243.382812 C 282.9375 223.472656 286.671875 204.664062 288.28125 193.726562 L 288.566406 191.816406 C 289.453125 185.875 290.363281 179.734375 290.941406 173.648438 C 292.078125 161.734375 292 149.578125 291.921875 137.816406 C 291.894531 134.039062 291.871094 130.125 291.890625 126.285156 C 291.949219 110.910156 294.171875 91.609375 296.132812 74.585938 C 296.589844 70.628906 297.03125 66.824219 297.421875 63.238281 C 297.421875 63.226562 297.414062 63.214844 297.414062 63.195312 C 297.40625 63.195312 297.414062 63.183594 297.414062 63.164062 Z M 294.832031 74.449219 C 292.871094 91.507812 290.640625 110.851562 290.582031 126.292969 C 290.570312 130.144531 290.597656 134.050781 290.617188 137.835938 C 290.691406 149.566406 290.769531 161.6875 289.640625 173.539062 C 289.0625 179.589844 288.152344 185.714844 287.273438 191.644531 L 286.988281 193.550781 C 285.375 204.460938 281.652344 223.253906 277.714844 243.148438 C 272.292969 270.507812 266.15625 301.460938 264.539062 317.148438 C 255.671875 317.589844 246.769531 317.007812 238.148438 316.433594 C 231.597656 316 224.820312 315.546875 218.058594 315.546875 L 213.898438 315.546875 C 186.003906 313.921875 157.164062 312.238281 129.074219 307.953125 L 127.675781 307.738281 C 122.910156 307.007812 117.996094 306.246094 113.058594 306.285156 C 108.292969 306.324219 103.476562 307.125 98.824219 307.890625 C 91.941406 309.027344 84.835938 310.1875 78.003906 308.851562 C 85.421875 279.371094 91.980469 223.648438 97.257812 178.8125 C 99.519531 159.585938 101.476562 142.980469 103.199219 130.910156 L 105.609375 113.988281 C 107.007812 104.195312 108.832031 94.351562 110.601562 84.835938 C 112.335938 75.507812 114.125 65.871094 115.515625 56.253906 C 175.238281 62.734375 235.972656 65.292969 296.035156 63.84375 C 295.664062 67.214844 295.257812 70.765625 294.832031 74.449219 Z M 150.3125 179.078125 C 150.339844 174.390625 149.457031 167.644531 145.0625 162.148438 C 140.804688 156.824219 133.902344 154.1875 127.890625 155.589844 C 126.34375 155.953125 125.382812 157.472656 125.691406 159.019531 C 125.691406 159.03125 125.6875 159.046875 125.6875 159.058594 L 124.121094 205.070312 C 124.121094 205.136719 124.132812 205.203125 124.132812 205.265625 C 124.140625 205.371094 124.140625 205.472656 124.152344 205.578125 C 124.164062 205.683594 124.199219 205.785156 124.222656 205.890625 C 124.242188 205.953125 124.242188 206.019531 124.261719 206.078125 C 124.269531 206.105469 124.28125 206.125 124.289062 206.144531 C 124.308594 206.207031 124.339844 206.265625 124.367188 206.324219 C 124.414062 206.429688 124.464844 206.53125 124.515625 206.628906 C 124.550781 206.683594 124.582031 206.734375 124.613281 206.785156 C 124.679688 206.890625 124.757812 206.980469 124.835938 207.070312 C 124.867188 207.109375 124.898438 207.148438 124.9375 207.1875 C 125.042969 207.296875 125.152344 207.394531 125.269531 207.480469 C 125.289062 207.492188 125.308594 207.511719 125.328125 207.527344 C 125.464844 207.625 125.613281 207.707031 125.769531 207.785156 C 125.824219 207.8125 125.875 207.824219 125.921875 207.851562 C 126.03125 207.894531 126.148438 207.941406 126.265625 207.972656 C 126.324219 207.988281 126.382812 208 126.441406 208.011719 C 126.570312 208.039062 126.707031 208.058594 126.84375 208.066406 C 126.875 208.066406 126.902344 208.078125 126.933594 208.078125 C 126.96875 208.078125 126.992188 208.078125 127.019531 208.078125 C 127.027344 208.078125 127.027344 208.078125 127.03125 208.078125 C 127.207031 208.078125 127.375 208.058594 127.550781 208.027344 C 127.617188 208.011719 127.675781 207.992188 127.742188 207.980469 C 127.8125 207.960938 127.875 207.953125 127.949219 207.929688 C 141.253906 203.578125 150.234375 191.972656 150.3125 179.078125 Z M 133.734375 157.753906 C 133.855469 157.226562 134.382812 156.902344 134.910156 157.03125 C 137.371094 157.617188 139.765625 159.046875 141.832031 161.164062 C 143.859375 163.242188 145.316406 165.683594 146.355469 167.585938 C 146.617188 168.058594 146.441406 168.648438 145.972656 168.910156 C 145.824219 168.992188 145.660156 169.03125 145.503906 169.03125 C 145.160156 169.03125 144.828125 168.851562 144.644531 168.527344 C 143.664062 166.734375 142.292969 164.433594 140.433594 162.527344 C 138.621094 160.667969 136.558594 159.429688 134.460938 158.929688 C 133.933594 158.796875 133.609375 158.273438 133.734375 157.753906 Z M 130.125 200.753906 L 131.472656 161.058594 C 134.734375 161.136719 138.152344 162.882812 140.484375 165.796875 C 143.078125 169.046875 144.496094 173.746094 144.464844 179.046875 C 144.40625 188.105469 138.796875 196.402344 130.125 200.753906 Z M 176.378906 160.6875 C 173.824219 157.488281 170.828125 156.972656 168.757812 157.105469 C 164.035156 157.402344 160.113281 161.1875 158.191406 164.34375 C 154.195312 170.894531 151.917969 177.394531 151.425781 183.664062 C 151.375 184.351562 151.300781 185 151.230469 185.628906 C 150.925781 188.449219 150.613281 191.363281 152.03125 194.988281 C 153.695312 199.226562 158.0625 204.980469 163.75 204.980469 C 164.28125 204.980469 164.828125 204.929688 165.386719 204.824219 C 171.101562 203.722656 174.578125 198.394531 176.480469 194.125 C 180.09375 186.046875 181.109375 175.65625 179.125 167.007812 C 178.945312 166.222656 178.757812 165.527344 178.546875 164.882812 C 178.007812 163.203125 177.292969 161.832031 176.378906 160.6875 Z M 171.152344 191.742188 C 170.054688 194.203125 167.699219 198.429688 164.289062 199.085938 C 161.644531 199.589844 158.640625 195.796875 157.488281 192.855469 C 156.59375 190.566406 156.773438 188.851562 157.054688 186.253906 C 157.125 185.570312 157.203125 184.871094 157.261719 184.125 C 157.683594 178.777344 159.679688 173.148438 163.195312 167.382812 C 164.664062 164.96875 167.21875 163.058594 169.136719 162.933594 C 169.203125 162.929688 169.273438 162.929688 169.34375 162.929688 C 169.976562 162.929688 170.859375 163.128906 171.816406 164.332031 C 172.289062 164.921875 172.679688 165.703125 173.011719 166.707031 C 173.167969 167.175781 173.308594 167.703125 173.445312 168.3125 C 175.140625 175.777344 174.269531 184.757812 171.152344 191.742188 Z M 175.863281 165.433594 C 175.734375 165.492188 175.605469 165.519531 175.472656 165.519531 C 175.097656 165.519531 174.738281 165.304688 174.582031 164.933594 C 174.011719 163.644531 173.511719 162.605469 172.640625 162.039062 C 172.191406 161.746094 172.0625 161.144531 172.359375 160.6875 C 172.652344 160.242188 173.257812 160.109375 173.710938 160.410156 C 175.136719 161.335938 175.851562 162.96875 176.378906 164.15625 C 176.578125 164.648438 176.359375 165.222656 175.863281 165.433594 Z M 171.023438 274.773438 C 167.679688 272.796875 164.632812 270.332031 161.96875 267.492188 C 167.621094 260.019531 168.566406 247.1875 167.363281 239.644531 C 166.570312 234.648438 164.890625 230.648438 162.382812 227.757812 C 157.929688 222.628906 151.78125 221.835938 146.34375 225.6875 C 137.074219 232.242188 134.324219 244.804688 134.84375 254.382812 C 135.089844 258.988281 135.96875 262.492188 137.59375 265.402344 C 140.34375 270.324219 145.523438 273.363281 150.789062 273.363281 C 151.621094 273.363281 152.453125 273.285156 153.277344 273.128906 C 154.902344 272.824219 156.359375 272.246094 157.671875 271.453125 C 160.71875 274.707031 164.214844 277.546875 168.042969 279.804688 C 168.511719 280.078125 169.027344 280.214844 169.53125 280.214844 C 170.535156 280.214844 171.507812 279.703125 172.054688 278.777344 C 172.867188 277.390625 172.414062 275.597656 171.023438 274.773438 Z M 140.097656 236.109375 C 141.910156 231.695312 145.21875 228.007812 149.410156 225.722656 C 149.882812 225.460938 150.476562 225.636719 150.734375 226.109375 C 150.996094 226.585938 150.820312 227.175781 150.347656 227.433594 C 146.542969 229.507812 143.542969 232.855469 141.898438 236.855469 C 141.742188 237.234375 141.375 237.460938 140.992188 237.460938 C 140.871094 237.460938 140.746094 237.433594 140.621094 237.390625 C 140.128906 237.175781 139.894531 236.605469 140.097656 236.109375 Z M 158.132812 262.757812 C 156.742188 260.757812 155.527344 258.648438 154.519531 256.433594 C 153.847656 254.96875 152.113281 254.316406 150.644531 254.988281 C 149.175781 255.65625 148.527344 257.390625 149.195312 258.855469 C 150.476562 261.664062 152.050781 264.335938 153.863281 266.835938 C 153.328125 267.078125 152.777344 267.265625 152.1875 267.375 C 148.625 268.046875 144.640625 266.019531 142.695312 262.546875 C 141.539062 260.46875 140.875 257.695312 140.679688 254.058594 C 140.140625 243.980469 143.683594 234.714844 149.714844 230.449219 C 150.964844 229.566406 152.1875 229.128906 153.375 229.128906 C 155 229.128906 156.546875 229.949219 157.957031 231.578125 C 159.738281 233.628906 160.953125 236.648438 161.578125 240.550781 C 162.546875 246.605469 161.792969 256.792969 158.132812 262.757812 Z M 195.96875 228.097656 C 194.347656 228.078125 193.003906 229.316406 192.953125 230.929688 C 192.78125 236.488281 192.605469 242.234375 191.429688 247.6875 C 190.164062 253.566406 187.875 258.292969 184.636719 261.738281 C 183.585938 262.863281 182.980469 263.125 182.664062 263.144531 C 181.890625 263.167969 180.777344 261.902344 180.050781 260.128906 C 176.648438 251.902344 178.105469 242.253906 179.394531 233.738281 C 179.632812 232.144531 178.535156 230.65625 176.9375 230.414062 C 175.335938 230.167969 173.847656 231.273438 173.609375 232.871094 C 172.277344 241.675781 170.625 252.636719 174.640625 262.363281 C 176.371094 266.546875 179.320312 268.988281 182.605469 268.988281 C 182.753906 268.988281 182.910156 268.980469 183.058594 268.972656 C 185.742188 268.792969 187.671875 267.039062 188.894531 265.742188 C 192.875 261.507812 195.648438 255.84375 197.144531 248.914062 C 198.429688 242.941406 198.621094 236.921875 198.792969 231.105469 C 198.851562 229.492188 197.578125 228.148438 195.96875 228.097656 Z M 176.980469 239.429688 C 176.949219 239.941406 176.519531 240.335938 176.007812 240.335938 C 175.988281 240.335938 175.960938 240.335938 175.941406 240.335938 C 175.402344 240.296875 175 239.835938 175.039062 239.296875 L 175.421875 233.765625 C 175.460938 233.226562 175.921875 232.816406 176.460938 232.863281 C 177 232.902344 177.402344 233.363281 177.367188 233.902344 Z M 210.183594 232.472656 C 208.609375 232.109375 207.035156 233.085938 206.664062 234.65625 C 204 246.03125 202.546875 257.726562 202.34375 269.414062 C 202.316406 271.03125 203.605469 272.355469 205.214844 272.390625 C 205.234375 272.390625 205.25 272.390625 205.269531 272.390625 C 206.859375 272.390625 208.167969 271.117188 208.191406 269.519531 C 208.386719 258.246094 209.792969 246.96875 212.367188 235.992188 C 212.730469 234.410156 211.753906 232.835938 210.183594 232.472656 Z M 209.746094 236.855469 C 209.019531 240.394531 208.070312 249.5 208.058594 249.597656 C 208.003906 250.097656 207.582031 250.46875 207.089844 250.46875 C 207.054688 250.46875 207.023438 250.46875 206.984375 250.460938 C 206.453125 250.402344 206.0625 249.929688 206.113281 249.390625 C 206.152344 249.011719 207.082031 240.089844 207.828125 236.460938 C 207.941406 235.933594 208.453125 235.589844 208.980469 235.703125 C 209.511719 235.8125 209.851562 236.332031 209.746094 236.855469 Z M 243.234375 225.277344 C 233.828125 225.164062 224.332031 224.429688 215.019531 223.105469 C 213.417969 222.875 211.9375 223.988281 211.710938 225.585938 C 211.480469 227.183594 212.59375 228.664062 214.191406 228.890625 C 217.722656 229.390625 221.285156 229.8125 224.851562 230.144531 C 222.707031 242.242188 221.386719 254.566406 220.933594 266.832031 C 220.875 268.441406 222.136719 269.796875 223.746094 269.855469 C 223.785156 269.855469 223.820312 269.855469 223.855469 269.855469 C 225.421875 269.855469 226.71875 268.617188 226.777344 267.046875 C 227.222656 254.863281 228.550781 242.625 230.707031 230.609375 C 234.859375 230.890625 239.015625 231.066406 243.15625 231.117188 C 243.167969 231.117188 243.179688 231.117188 243.195312 231.117188 C 244.792969 231.117188 246.097656 229.832031 246.117188 228.234375 C 246.144531 226.625 244.851562 225.296875 243.234375 225.277344 Z M 237.253906 229.222656 C 237.234375 229.222656 237.214844 229.222656 237.195312 229.222656 C 235.316406 229.109375 233.4375 228.992188 231.558594 228.875 C 231.019531 228.84375 230.617188 228.375 230.648438 227.84375 C 230.683594 227.304688 231.144531 226.902344 231.683594 226.933594 C 233.554688 227.050781 235.433594 227.167969 237.304688 227.277344 C 237.84375 227.3125 238.253906 227.773438 238.222656 228.3125 C 238.195312 228.816406 237.765625 229.222656 237.253906 229.222656 Z M 205.15625 201.214844 C 205.164062 201.253906 205.183594 201.292969 205.191406 201.332031 C 205.222656 201.472656 205.261719 201.609375 205.3125 201.742188 C 205.332031 201.785156 205.359375 201.832031 205.378906 201.875 C 205.429688 201.992188 205.488281 202.109375 205.5625 202.222656 C 205.59375 202.273438 205.632812 202.316406 205.664062 202.363281 C 205.734375 202.460938 205.800781 202.550781 205.886719 202.636719 C 205.929688 202.6875 205.984375 202.734375 206.035156 202.785156 C 206.113281 202.855469 206.191406 202.929688 206.277344 202.992188 C 206.335938 203.039062 206.398438 203.078125 206.464844 203.125 C 206.554688 203.183594 206.644531 203.234375 206.742188 203.277344 C 206.808594 203.3125 206.875 203.34375 206.9375 203.371094 C 207.054688 203.414062 207.179688 203.453125 207.308594 203.488281 C 207.347656 203.5 207.386719 203.519531 207.433594 203.527344 C 207.445312 203.527344 207.457031 203.527344 207.464844 203.53125 C 207.648438 203.566406 207.828125 203.589844 208.023438 203.589844 C 208.207031 203.589844 208.382812 203.570312 208.558594 203.539062 C 208.5625 203.539062 208.570312 203.539062 208.578125 203.539062 C 208.609375 203.53125 208.640625 203.519531 208.675781 203.511719 C 208.8125 203.480469 208.945312 203.441406 209.082031 203.390625 C 209.148438 203.363281 209.207031 203.332031 209.273438 203.304688 C 209.371094 203.257812 209.46875 203.207031 209.558594 203.148438 C 209.625 203.109375 209.679688 203.070312 209.746094 203.027344 C 209.832031 202.960938 209.914062 202.894531 209.992188 202.824219 C 210.046875 202.777344 210.097656 202.726562 210.148438 202.683594 C 210.226562 202.597656 210.300781 202.507812 210.371094 202.414062 C 210.410156 202.363281 210.449219 202.316406 210.480469 202.265625 C 210.550781 202.164062 210.605469 202.050781 210.664062 201.933594 C 210.6875 201.890625 210.714844 201.84375 210.734375 201.792969 C 210.785156 201.667969 210.824219 201.53125 210.859375 201.394531 C 210.871094 201.351562 210.882812 201.3125 210.898438 201.265625 C 211.703125 197.375 212.425781 193.453125 213.125 189.664062 C 214.902344 180 216.578125 170.871094 219.660156 161.792969 C 220.179688 160.265625 219.359375 158.605469 217.824219 158.085938 C 216.296875 157.566406 214.632812 158.382812 214.113281 159.914062 C 211.058594 168.910156 209.292969 178.148438 207.640625 187.136719 C 207.265625 185.824219 206.878906 184.527344 206.496094 183.234375 C 204.136719 175.242188 201.699219 166.96875 201.09375 158.953125 C 201.0625 158.519531 200.925781 158.117188 200.726562 157.753906 C 200.570312 156.636719 199.777344 155.664062 198.621094 155.335938 C 197.066406 154.902344 195.449219 155.8125 195.011719 157.363281 C 191.820312 168.757812 190.007812 184.351562 188.550781 196.875 C 188.292969 199.125 188.039062 201.292969 187.789062 203.335938 C 187.597656 204.941406 188.738281 206.394531 190.34375 206.589844 C 190.460938 206.605469 190.585938 206.609375 190.703125 206.609375 C 192.160156 206.609375 193.425781 205.519531 193.601562 204.039062 C 193.847656 201.980469 194.101562 199.804688 194.367188 197.546875 C 195.246094 189.972656 196.261719 181.273438 197.617188 173.148438 C 198.59375 177.105469 199.742188 181.027344 200.882812 184.882812 C 202.472656 190.257812 204.113281 195.832031 205.15625 201.214844 Z M 198.046875 161.507812 C 197.675781 164.335938 197.164062 167.183594 196.53125 169.96875 C 196.429688 170.421875 196.027344 170.726562 195.582031 170.726562 C 195.511719 170.726562 195.441406 170.722656 195.371094 170.703125 C 194.84375 170.585938 194.519531 170.058594 194.636719 169.53125 C 195.257812 166.804688 195.753906 164.019531 196.117188 161.253906 C 196.1875 160.722656 196.675781 160.34375 197.207031 160.414062 C 197.734375 160.480469 198.113281 160.972656 198.046875 161.507812 Z M 218.269531 200.667969 C 220.035156 204.273438 223.460938 206.597656 227.007812 206.597656 C 227.027344 206.597656 227.046875 206.597656 227.0625 206.597656 C 229.675781 206.578125 233.535156 205.332031 237.066406 199.46875 C 241.25 192.519531 243.433594 184.558594 243.371094 176.449219 C 243.351562 174.046875 243.128906 170.492188 241.40625 167.375 C 239.46875 163.871094 235.933594 161.695312 232.371094 161.835938 C 217.761719 162.402344 216.757812 188.609375 216.695312 191.597656 C 216.644531 194.207031 216.765625 197.609375 218.269531 200.667969 Z M 239.171875 169.902344 C 239.683594 169.742188 240.230469 170.03125 240.390625 170.546875 C 240.976562 172.414062 241.082031 174.414062 240.699219 176.335938 C 240.605469 176.796875 240.199219 177.125 239.742188 177.125 C 239.675781 177.125 239.613281 177.117188 239.546875 177.105469 C 239.019531 177 238.675781 176.488281 238.78125 175.960938 C 239.097656 174.355469 239.015625 172.6875 238.527344 171.128906 C 238.371094 170.609375 238.65625 170.066406 239.171875 169.902344 Z M 226.328125 166.394531 C 227.277344 165.65625 228.324219 164.902344 229.523438 164.46875 C 231.96875 163.570312 234.917969 164.136719 236.863281 165.871094 C 237.265625 166.226562 237.296875 166.84375 236.941406 167.246094 C 236.582031 167.648438 235.964844 167.683594 235.5625 167.324219 C 234.140625 166.058594 231.980469 165.644531 230.195312 166.296875 C 229.296875 166.625 228.480469 167.1875 227.53125 167.933594 C 227.355469 168.070312 227.140625 168.144531 226.933594 168.144531 C 226.640625 168.144531 226.351562 168.011719 226.164062 167.765625 C 225.828125 167.335938 225.90625 166.726562 226.328125 166.394531 Z M 222.550781 191.722656 C 222.765625 182.203125 225.617188 167.941406 232.613281 167.667969 C 232.644531 167.667969 232.675781 167.667969 232.703125 167.667969 C 234.003906 167.667969 235.464844 168.695312 236.296875 170.195312 C 237.128906 171.703125 237.511719 173.644531 237.53125 176.480469 C 237.585938 183.414062 235.640625 190.5 232.058594 196.441406 C 231.097656 198.039062 229.160156 200.726562 227.027344 200.742188 C 227.023438 200.742188 227.015625 200.742188 227.015625 200.742188 C 225.722656 200.742188 224.292969 199.648438 223.527344 198.089844 C 222.582031 196.183594 222.5 193.796875 222.550781 191.722656 Z M 271.421875 158.605469 L 242.210938 157.257812 C 240.601562 157.175781 239.230469 158.433594 239.15625 160.046875 C 239.085938 161.65625 240.335938 163.027344 241.945312 163.097656 L 254.160156 163.65625 L 249.460938 203.589844 C 249.269531 205.195312 250.421875 206.648438 252.019531 206.835938 C 252.136719 206.851562 252.253906 206.855469 252.363281 206.855469 C 253.828125 206.855469 255.089844 205.765625 255.265625 204.277344 L 260.007812 163.933594 L 271.140625 164.449219 C 271.1875 164.449219 271.234375 164.449219 271.277344 164.449219 C 272.832031 164.449219 274.125 163.226562 274.195312 161.664062 C 274.28125 160.046875 273.035156 158.675781 271.421875 158.605469 Z M 253.714844 161.472656 C 253.640625 161.953125 253.222656 162.292969 252.753906 162.292969 C 252.703125 162.292969 252.652344 162.285156 252.597656 162.277344 C 249.65625 161.796875 246.644531 161.527344 243.660156 161.472656 C 243.121094 161.460938 242.695312 161.019531 242.707031 160.480469 C 242.71875 159.949219 243.148438 159.527344 243.679688 159.527344 C 243.6875 159.527344 243.695312 159.527344 243.699219 159.527344 C 246.773438 159.585938 249.875 159.863281 252.910156 160.355469 C 253.445312 160.441406 253.800781 160.941406 253.714844 161.472656 Z M 182.910156 123.972656 C 182.8125 124.222656 182.722656 124.472656 182.648438 124.726562 C 182.449219 124.875 182.292969 125.089844 182.207031 125.34375 C 182.085938 125.722656 182.136719 126.109375 182.324219 126.421875 C 182.226562 127.578125 182.382812 128.714844 182.792969 129.726562 C 183.3125 131.019531 184.195312 131.992188 185.289062 132.472656 C 185.847656 132.722656 186.464844 132.84375 187.148438 132.84375 C 187.671875 132.84375 188.234375 132.773438 188.824219 132.625 C 191.734375 131.902344 194.238281 129.851562 195.511719 127.136719 C 195.816406 126.488281 195.539062 125.714844 194.886719 125.410156 C 194.238281 125.105469 193.464844 125.382812 193.160156 126.03125 C 192.230469 128.011719 190.324219 129.570312 188.199219 130.097656 C 187.414062 130.292969 186.789062 130.292969 186.339844 130.089844 C 185.878906 129.890625 185.46875 129.402344 185.210938 128.753906 C 185.023438 128.292969 184.925781 127.777344 184.90625 127.246094 C 187.285156 127.167969 189.460938 125.566406 190.554688 123.707031 C 191.113281 122.753906 191.347656 121.875 191.261719 121.027344 C 191.132812 119.714844 190.167969 118.628906 188.96875 118.441406 C 187.589844 118.234375 186.53125 119.1875 186.132812 119.550781 C 184.613281 120.933594 183.535156 122.421875 182.910156 123.972656 Z M 187.875 121.488281 C 188.363281 121.046875 188.550781 121.019531 188.53125 121.007812 C 188.570312 121.03125 188.65625 121.148438 188.667969 121.285156 C 188.695312 121.570312 188.570312 121.941406 188.304688 122.402344 C 187.710938 123.414062 186.640625 124.292969 185.484375 124.566406 C 185.976562 123.519531 186.785156 122.480469 187.875 121.488281 Z M 161.578125 117.273438 C 161.394531 116.578125 161.8125 115.871094 162.507812 115.6875 C 167.53125 114.382812 172.78125 113.703125 178.027344 113.644531 C 178.25 112.765625 178.46875 111.890625 178.710938 111.011719 C 178.898438 110.324219 179.613281 109.914062 180.308594 110.105469 C 181.003906 110.292969 181.40625 111.007812 181.21875 111.703125 C 181.042969 112.355469 180.875 113.011719 180.707031 113.667969 C 182.785156 113.734375 184.859375 113.894531 186.914062 114.164062 C 187.628906 114.253906 188.128906 114.910156 188.039062 115.617188 C 187.945312 116.332031 187.296875 116.832031 186.582031 116.742188 C 184.4375 116.460938 182.265625 116.3125 180.089844 116.265625 C 178.78125 121.96875 177.910156 127.777344 177.507812 133.605469 C 177.460938 134.285156 176.890625 134.8125 176.214844 134.8125 C 176.183594 134.8125 176.15625 134.8125 176.125 134.8125 C 175.410156 134.757812 174.871094 134.144531 174.914062 133.429688 C 175.316406 127.667969 176.164062 121.914062 177.421875 116.265625 C 172.609375 116.363281 167.792969 117.011719 163.171875 118.214844 C 163.058594 118.242188 162.949219 118.253906 162.84375 118.253906 C 162.253906 118.246094 161.726562 117.855469 161.578125 117.273438 Z M 144.40625 136.324219 C 144.46875 136.332031 144.535156 136.335938 144.601562 136.335938 C 145.222656 136.335938 145.777344 135.882812 145.882812 135.253906 C 146.355469 135.222656 146.804688 134.933594 147 134.46875 C 148.472656 130.933594 150.527344 127.703125 153.109375 124.871094 C 153.34375 124.609375 153.472656 124.507812 153.53125 124.460938 C 153.589844 124.5 153.675781 124.597656 153.707031 124.707031 C 153.824219 125.085938 153.714844 125.609375 153.582031 126.128906 C 153.523438 126.355469 153.460938 126.585938 153.402344 126.816406 C 153.042969 128.128906 152.640625 129.617188 152.933594 131.167969 C 153.171875 132.433594 154.011719 133.609375 155.125 134.234375 C 156.019531 134.742188 157.015625 134.832031 157.910156 134.492188 C 158.808594 134.15625 159.417969 133.460938 159.828125 133 C 160.855469 131.835938 161.851562 130.636719 162.824219 129.414062 C 162.851562 129.863281 162.902344 130.292969 163 130.703125 C 163.402344 132.421875 164.390625 133.203125 165.152344 133.558594 C 165.625 133.777344 166.101562 133.875 166.574219 133.875 C 168.097656 133.875 169.546875 132.851562 170.519531 131.695312 C 172.140625 129.777344 173.210938 127.460938 173.613281 124.988281 C 173.757812 124.136719 173.875 122.871094 173.304688 121.714844 C 172.671875 120.449219 171.574219 119.667969 170.210938 119.53125 C 168.175781 119.324219 166.015625 120.578125 164.949219 121.929688 C 164.664062 122.285156 164.378906 122.785156 164.105469 123.363281 C 162.183594 126.109375 160.097656 128.773438 157.878906 131.277344 C 157.554688 131.644531 157.269531 131.953125 156.996094 132.058594 C 156.820312 132.125 156.617188 132.089844 156.398438 131.96875 C 155.960938 131.722656 155.585938 131.195312 155.488281 130.6875 C 155.304688 129.726562 155.597656 128.648438 155.910156 127.5 C 155.976562 127.257812 156.039062 127.011719 156.105469 126.773438 C 156.332031 125.890625 156.5 124.933594 156.195312 123.949219 C 155.773438 122.558594 154.46875 121.664062 153.160156 121.875 C 152.171875 122.03125 151.535156 122.742188 151.183594 123.125 C 149.652344 124.8125 148.296875 126.628906 147.121094 128.558594 C 147.558594 126.550781 148.058594 124.558594 148.617188 122.589844 C 148.8125 121.902344 148.414062 121.183594 147.71875 120.988281 C 147.03125 120.792969 146.308594 121.1875 146.113281 121.882812 C 144.914062 126.125 143.96875 130.488281 143.328125 134.851562 C 143.210938 135.558594 143.695312 136.214844 144.40625 136.324219 Z M 166.355469 124.664062 C 166.378906 124.628906 166.40625 124.589844 166.433594 124.558594 C 166.535156 124.410156 166.601562 124.246094 166.640625 124.078125 C 166.757812 123.855469 166.875 123.675781 166.980469 123.539062 C 167.617188 122.726562 168.835938 122.109375 169.742188 122.109375 C 169.804688 122.109375 169.863281 122.109375 169.921875 122.117188 C 170.402344 122.167969 170.722656 122.402344 170.957031 122.875 C 171.136719 123.242188 171.164062 123.777344 171.035156 124.566406 C 170.703125 126.578125 169.832031 128.460938 168.519531 130.019531 C 167.84375 130.824219 166.84375 131.488281 166.246094 131.207031 C 166.113281 131.148438 165.722656 130.960938 165.515625 130.105469 C 165.140625 128.519531 165.710938 126.15625 166.355469 124.664062 Z M 202.460938 117.234375 C 202.402344 116.519531 202.933594 115.894531 203.65625 115.835938 C 204.96875 115.734375 206.28125 115.65625 207.601562 115.589844 C 207.847656 114.527344 208.113281 113.488281 208.40625 112.492188 C 208.609375 111.804688 209.332031 111.410156 210.019531 111.617188 C 210.707031 111.816406 211.105469 112.539062 210.898438 113.226562 C 210.683594 113.953125 210.480469 114.707031 210.292969 115.480469 C 212.191406 115.421875 214.089844 115.394531 215.980469 115.414062 C 216.695312 115.421875 217.273438 116.007812 217.265625 116.726562 C 217.261719 117.441406 216.683594 118.011719 215.964844 118.011719 C 215.960938 118.011719 215.960938 118.011719 215.953125 118.011719 C 213.878906 117.992188 211.792969 118.027344 209.707031 118.097656 C 208.667969 123.265625 208.121094 128.84375 207.964844 132.941406 C 207.941406 133.644531 207.359375 134.1875 206.664062 134.1875 C 206.644531 134.1875 206.632812 134.1875 206.613281 134.1875 C 205.898438 134.164062 205.339844 133.558594 205.367188 132.835938 C 205.523438 128.796875 206.042969 123.363281 207.035156 118.214844 C 205.96875 118.273438 204.910156 118.34375 203.851562 118.429688 C 203.820312 118.429688 203.78125 118.433594 203.746094 118.433594 C 203.085938 118.429688 202.511719 117.910156 202.460938 117.234375 Z M 215.285156 120.234375 C 212.671875 121.480469 212.039062 125.835938 211.890625 127.65625 C 211.683594 130.183594 213.242188 133.960938 216.257812 134.375 C 216.433594 134.402344 216.609375 134.414062 216.785156 134.414062 C 217.722656 134.414062 218.636719 134.066406 219.449219 133.390625 C 221.082031 132.046875 222.019531 129.636719 222.101562 127.953125 C 222.179688 126.375 221.808594 124.722656 221.015625 123.164062 C 220.457031 122.050781 219.796875 121.253906 219.003906 120.714844 C 217.382812 119.617188 216.089844 119.851562 215.285156 120.234375 Z M 218.703125 124.335938 C 219.289062 125.492188 219.566406 126.703125 219.507812 127.824219 C 219.457031 128.902344 218.78125 130.570312 217.792969 131.390625 C 217.195312 131.882812 216.757812 131.824219 216.617188 131.804688 C 215.296875 131.625 214.367188 129.257812 214.484375 127.871094 C 214.730469 124.910156 215.660156 122.933594 216.414062 122.578125 C 216.460938 122.558594 216.539062 122.519531 216.675781 122.519531 C 216.855469 122.519531 217.136719 122.589844 217.550781 122.871094 C 217.96875 123.148438 218.34375 123.628906 218.703125 124.335938 Z M 229.160156 131.234375 C 228.628906 129.863281 228.582031 128.402344 228.609375 127.285156 C 228.621094 126.578125 229.199219 126.011719 229.910156 126.011719 C 229.914062 126.011719 229.929688 126.011719 229.933594 126.011719 C 230.648438 126.027344 231.222656 126.625 231.207031 127.335938 C 231.1875 128.273438 231.222656 129.351562 231.585938 130.292969 C 232.113281 131.628906 233.886719 132.394531 235.070312 132.164062 C 235.542969 132.066406 236.175781 131.792969 236.148438 130.511719 C 236.140625 130.089844 236.019531 129.617188 235.765625 128.980469 C 235.492188 128.304688 235.152344 127.644531 234.804688 126.949219 C 234.503906 126.363281 234.199219 125.765625 233.925781 125.136719 C 233.140625 123.34375 232.308594 120.664062 234.121094 118.128906 C 235.015625 116.882812 236.464844 116.257812 238 116.46875 C 239.613281 116.6875 240.957031 117.753906 241.503906 119.246094 C 241.75 119.921875 241.40625 120.667969 240.730469 120.914062 C 240.054688 121.164062 239.308594 120.816406 239.058594 120.144531 C 238.84375 119.566406 238.292969 119.136719 237.648438 119.046875 C 237.316406 119 236.6875 119.019531 236.238281 119.644531 C 235.414062 120.796875 235.433594 122.085938 236.3125 124.097656 C 236.550781 124.648438 236.832031 125.195312 237.125 125.765625 C 237.488281 126.488281 237.871094 127.226562 238.183594 128.011719 C 238.4375 128.648438 238.734375 129.5 238.753906 130.453125 C 238.800781 132.675781 237.589844 134.304688 235.589844 134.707031 C 235.289062 134.765625 234.976562 134.796875 234.652344 134.796875 C 232.527344 134.792969 230.058594 133.519531 229.160156 131.234375 Z M 247.023438 132.714844 C 247.742188 132.714844 248.476562 132.585938 249.179688 132.324219 C 250.882812 131.6875 252.417969 130.316406 253.632812 128.363281 C 254.007812 127.753906 253.820312 126.953125 253.210938 126.578125 C 252.597656 126.203125 251.800781 126.390625 251.421875 127 C 250.792969 128.019531 249.734375 129.351562 248.269531 129.894531 C 247.035156 130.355469 245.617188 130.097656 244.917969 129.277344 C 244.335938 128.605469 244.203125 127.625 244.246094 126.6875 C 245.105469 126.890625 246.058594 126.8125 246.929688 126.421875 C 247.90625 125.988281 248.777344 125.203125 249.53125 124.078125 C 249.847656 123.605469 250.285156 122.871094 250.402344 121.992188 C 250.546875 120.949219 250.179688 119.914062 249.453125 119.292969 C 248.589844 118.558594 247.320312 118.421875 246.046875 118.933594 C 243.167969 120.097656 242.171875 123.253906 241.835938 125.027344 C 241.359375 127.527344 241.746094 129.585938 242.941406 130.972656 C 243.914062 132.097656 245.429688 132.714844 247.023438 132.714844 Z M 247.023438 121.335938 C 247.417969 121.175781 247.710938 121.222656 247.761719 121.257812 C 247.796875 121.285156 247.855469 121.433594 247.828125 121.636719 C 247.78125 121.980469 247.542969 122.363281 247.375 122.625 C 246.898438 123.332031 246.390625 123.8125 245.871094 124.039062 C 245.5 124.207031 245.078125 124.234375 244.761719 124.128906 C 245.136719 123.058594 245.820312 121.816406 247.023438 121.335938 Z M 253.605469 133.753906 C 254.140625 125.304688 255.933594 117.011719 258.9375 109.097656 C 259.191406 108.429688 259.945312 108.089844 260.613281 108.34375 C 261.28125 108.597656 261.621094 109.351562 261.367188 110.019531 C 258.453125 117.6875 256.71875 125.734375 256.199219 133.914062 C 256.152344 134.605469 255.582031 135.128906 254.90625 135.128906 C 254.878906 135.128906 254.847656 135.128906 254.820312 135.128906 C 254.105469 135.089844 253.5625 134.472656 253.605469 133.753906 Z M 261.75 123.597656 C 261.898438 121.960938 262.113281 120.324219 262.445312 118.707031 C 262.894531 116.527344 264.070312 110.742188 267.929688 110.375 C 269.160156 110.257812 270.414062 110.714844 271.292969 111.578125 C 272.019531 112.296875 272.382812 113.175781 272.714844 113.953125 C 272.929688 114.472656 273.136719 114.960938 273.410156 115.324219 C 273.847656 115.894531 273.734375 116.707031 273.171875 117.144531 C 272.597656 117.578125 271.785156 117.472656 271.351562 116.902344 C 270.871094 116.277344 270.578125 115.578125 270.316406 114.960938 C 270.050781 114.324219 269.824219 113.777344 269.464844 113.421875 C 269.132812 113.097656 268.648438 112.921875 268.179688 112.960938 C 267.292969 113.046875 266.019531 114.195312 264.992188 119.226562 C 264.714844 120.605469 264.519531 122.007812 264.382812 123.414062 C 265.28125 123.175781 266.125 122.765625 266.847656 122.183594 C 267.40625 121.726562 268.222656 121.8125 268.671875 122.363281 C 269.128906 122.921875 269.042969 123.742188 268.492188 124.1875 C 267.253906 125.195312 265.746094 125.851562 264.175781 126.117188 C 264.070312 127.941406 264.023438 129.773438 263.984375 131.570312 C 263.921875 134.472656 263.855469 137.472656 263.539062 140.421875 C 263.347656 142.136719 263.058594 143.941406 262.152344 145.53125 C 261.914062 145.953125 261.472656 146.195312 261.023438 146.195312 C 260.808594 146.195312 260.585938 146.144531 260.386719 146.027344 C 259.761719 145.675781 259.539062 144.882812 259.890625 144.257812 C 260.523438 143.144531 260.777344 141.804688 260.949219 140.144531 C 261.257812 137.296875 261.320312 134.355469 261.386719 131.511719 C 261.425781 129.757812 261.472656 127.980469 261.5625 126.195312 C 260.890625 126.125 260.230469 125.988281 259.597656 125.757812 C 258.921875 125.527344 258.558594 124.785156 258.800781 124.105469 C 259.035156 123.429688 259.773438 123.070312 260.457031 123.304688 C 260.878906 123.453125 261.316406 123.539062 261.75 123.597656 Z M 274.269531 128.929688 L 273.964844 130.8125 C 273.859375 131.449219 273.308594 131.902344 272.683594 131.902344 C 272.613281 131.902344 272.546875 131.894531 272.476562 131.882812 C 271.765625 131.765625 271.285156 131.105469 271.394531 130.394531 L 271.703125 128.511719 C 271.816406 127.804688 272.480469 127.324219 273.191406 127.433594 C 273.898438 127.558594 274.378906 128.222656 274.269531 128.929688 Z M 274.886719 119.910156 C 275.5625 120.15625 275.90625 120.902344 275.660156 121.578125 L 275.09375 123.109375 C 274.898438 123.636719 274.40625 123.960938 273.871094 123.960938 C 273.722656 123.960938 273.574219 123.933594 273.421875 123.882812 C 272.746094 123.636719 272.402344 122.890625 272.648438 122.214844 L 273.214844 120.683594 C 273.460938 120.011719 274.210938 119.664062 274.886719 119.910156 Z M 274.886719 119.910156 "/>
</g>
</g>
</svg>
