<?xml version="1.0" encoding="UTF-8"?>
<svg xmlns="http://www.w3.org/2000/svg" xmlns:xlink="http://www.w3.org/1999/xlink" width="375pt" height="374.999991pt" viewBox="0 0 375 374.999991" version="1.2">
<defs>
<clipPath id="clip1">
  <path d="M 191.246094 223 L 233 223 L 233 375 L 191.246094 375 Z M 191.246094 223 "/>
</clipPath>
<clipPath id="clip2">
  <path d="M 292.402344 86 L 301.3125 86 L 301.3125 97 L 292.402344 97 Z M 292.402344 86 "/>
</clipPath>
</defs>
<g id="surface1">
<path style=" stroke:none;fill-rule:nonzero;fill:rgb(41.178894%,81.17981%,96.469116%);fill-opacity:1;" d="M 160.449219 352.464844 C 160.414062 352.464844 160.386719 352.460938 160.355469 352.460938 C 155.542969 351.949219 152.03125 350.117188 149.929688 347.007812 C 146.546875 341.996094 147.601562 334.867188 149.078125 329.765625 C 150.019531 326.527344 151.382812 323.28125 152.703125 320.148438 C 155.359375 313.847656 158.097656 307.332031 157.535156 300.515625 C 157 294.183594 152.933594 290.511719 148.632812 286.617188 C 146.351562 284.5625 143.996094 282.429688 142.125 279.847656 C 133.964844 268.554688 140.90625 258.34375 147.613281 248.464844 C 151.765625 242.351562 156.0625 236.027344 156.742188 229.507812 C 157.277344 224.375 156.535156 217.621094 152.859375 214.066406 C 150.761719 212.035156 147.902344 211.25 144.390625 211.714844 C 143.925781 211.773438 143.507812 211.449219 143.445312 210.992188 C 143.378906 210.53125 143.703125 210.109375 144.171875 210.050781 C 148.226562 209.507812 151.542969 210.449219 154.03125 212.855469 C 159.203125 217.859375 158.699219 227 158.421875 229.683594 C 157.699219 236.625 153.28125 243.121094 149.011719 249.410156 C 142.332031 259.242188 136.019531 268.523438 143.496094 278.863281 C 145.257812 281.308594 147.550781 283.375 149.761719 285.375 C 154.121094 289.316406 158.625 293.382812 159.214844 300.378906 C 159.816406 307.605469 156.992188 314.3125 154.257812 320.800781 C 152.957031 323.890625 151.613281 327.085938 150.703125 330.234375 C 149.320312 334.988281 148.3125 341.597656 151.328125 346.066406 C 153.136719 348.746094 156.234375 350.335938 160.535156 350.785156 C 160.996094 350.835938 161.332031 351.25 161.28125 351.714844 C 161.238281 352.148438 160.871094 352.464844 160.449219 352.464844 "/>
<path style=" stroke:none;fill-rule:nonzero;fill:rgb(39.99939%,78.819275%,56.079102%);fill-opacity:1;" d="M 195.917969 132.542969 C 199.648438 172.59375 176.242188 207.507812 143.636719 210.527344 C 111.027344 213.546875 81.574219 183.527344 77.835938 143.480469 C 74.105469 103.429688 97.507812 68.515625 130.117188 65.496094 C 162.726562 62.476562 192.179688 92.496094 195.917969 132.542969 "/>
<path style=" stroke:none;fill-rule:nonzero;fill:rgb(60.389709%,85.879517%,67.83905%);fill-opacity:1;" d="M 128.210938 111.992188 C 120.859375 124.9375 107.644531 131.34375 98.691406 126.300781 C 89.742188 121.246094 88.449219 106.65625 95.804688 93.707031 C 103.164062 80.757812 116.378906 74.351562 125.324219 79.394531 C 134.277344 84.445312 135.566406 99.039062 128.210938 111.992188 "/>
<path style=" stroke:none;fill-rule:nonzero;fill:rgb(39.99939%,78.819275%,56.079102%);fill-opacity:1;" d="M 144.589844 210.566406 C 142.835938 213.910156 141.09375 217.253906 139.339844 220.601562 C 138.902344 221.433594 138.308594 222.296875 137.984375 223.183594 C 137.558594 224.363281 139.5625 224 140.289062 223.855469 C 142.050781 223.527344 143.554688 222.558594 145.296875 222.175781 C 147.386719 221.71875 149.339844 222.449219 151.414062 222.566406 C 152.105469 222.605469 154.339844 222.625 153.835938 221.464844 C 153.507812 220.6875 152.480469 219.875 151.941406 219.230469 C 150.304688 217.304688 148.671875 215.382812 147.042969 213.453125 C 146.222656 212.496094 145.40625 211.53125 144.589844 210.566406 "/>
<path style=" stroke:none;fill-rule:nonzero;fill:rgb(63.919067%,63.139343%,63.139343%);fill-opacity:1;" d="M 147.871094 210.667969 C 147.898438 210.957031 147.683594 211.210938 147.390625 211.238281 L 141.707031 211.761719 C 141.414062 211.789062 141.15625 211.582031 141.128906 211.292969 C 141.101562 211.003906 141.316406 210.746094 141.609375 210.71875 L 147.292969 210.1875 C 147.585938 210.164062 147.847656 210.378906 147.871094 210.667969 "/>
<path style=" stroke:none;fill-rule:nonzero;fill:rgb(60.389709%,85.879517%,67.83905%);fill-opacity:1;" d="M 151.097656 221.566406 C 151.488281 221.667969 151.996094 221.816406 152.390625 221.71875 C 152.613281 221.667969 152.972656 221.53125 153.007812 221.285156 C 153.101562 220.652344 151.976562 219.976562 151.589844 219.585938 C 150.949219 218.917969 150.390625 218.171875 149.800781 217.460938 C 149.011719 216.503906 148.140625 215.613281 147.355469 214.644531 C 146.847656 214.03125 146.425781 213.289062 145.824219 212.757812 C 145.796875 212.734375 145.257812 212.402344 145.246094 212.515625 C 145.191406 213.058594 145.730469 213.753906 145.917969 214.25 C 146.210938 215.035156 146.339844 215.917969 146.351562 216.757812 C 146.355469 217.324219 146.285156 217.871094 146.125 218.414062 C 146.027344 218.726562 145.953125 219.074219 146.03125 219.402344 C 146.164062 219.921875 146.441406 219.820312 146.871094 219.808594 C 147.535156 219.792969 148.089844 220.261719 148.65625 220.53125 C 149.4375 220.90625 150.257812 221.339844 151.097656 221.566406 "/>
<path style=" stroke:none;fill-rule:nonzero;fill:rgb(41.178894%,81.17981%,96.469116%);fill-opacity:1;" d="M 185.8125 288.539062 C 185.757812 288.539062 185.703125 288.53125 185.648438 288.523438 C 180.898438 287.574219 177.578125 285.421875 175.769531 282.128906 C 172.875 276.828125 174.578125 269.832031 176.527344 264.886719 C 177.761719 261.746094 179.425781 258.640625 181.027344 255.640625 C 184.253906 249.613281 187.59375 243.378906 187.65625 236.546875 C 187.71875 230.191406 184.015625 226.152344 180.085938 221.882812 C 178.011719 219.621094 175.859375 217.285156 174.238281 214.535156 C 167.160156 202.546875 175.019531 193.015625 182.613281 183.804688 C 187.316406 178.101562 192.1875 172.199219 193.464844 165.765625 C 194.46875 160.707031 194.363281 153.914062 191.03125 150.035156 C 189.132812 147.820312 186.363281 146.757812 182.824219 146.910156 C 182.390625 146.910156 181.96875 146.566406 181.945312 146.105469 C 181.921875 145.640625 182.285156 145.25 182.75 145.230469 C 186.855469 145.078125 190.0625 146.316406 192.316406 148.941406 C 197 154.398438 195.644531 163.453125 195.121094 166.09375 C 193.753906 172.9375 188.753906 179.007812 183.921875 184.871094 C 176.359375 194.046875 169.210938 202.703125 175.695312 213.6875 C 177.226562 216.273438 179.3125 218.550781 181.332031 220.75 C 185.304688 225.070312 189.414062 229.539062 189.34375 236.558594 C 189.277344 243.804688 185.839844 250.226562 182.519531 256.429688 C 180.933594 259.390625 179.300781 262.453125 178.097656 265.503906 C 176.28125 270.109375 174.664062 276.597656 177.253906 281.324219 C 178.804688 284.164062 181.742188 286.027344 185.980469 286.875 C 186.441406 286.96875 186.734375 287.40625 186.644531 287.867188 C 186.558594 288.265625 186.210938 288.539062 185.8125 288.539062 "/>
<path style=" stroke:none;fill-rule:nonzero;fill:rgb(19.999695%,74.119568%,94.898987%);fill-opacity:1;" d="M 241.472656 72.832031 C 241.472656 113.050781 214.929688 145.660156 182.179688 145.660156 C 149.433594 145.660156 122.886719 113.050781 122.886719 72.832031 C 122.886719 32.605469 149.433594 0.00390625 182.179688 0.00390625 C 214.929688 0.00390625 241.472656 32.605469 241.472656 72.832031 "/>
<path style=" stroke:none;fill-rule:nonzero;fill:rgb(39.99939%,80.778503%,96.078491%);fill-opacity:1;" d="M 203.292969 131.371094 C 200.210938 134.265625 196.691406 136.773438 192.675781 138.800781 C 201.339844 137.183594 207.765625 133.710938 214.320312 128.390625 C 231.96875 114.074219 239.882812 84.8125 235.875 63.128906 C 230.574219 34.507812 227.359375 41.789062 216.207031 46.714844 C 229.515625 71.121094 223.527344 112.414062 203.292969 131.371094 "/>
<path style=" stroke:none;fill-rule:nonzero;fill:rgb(39.99939%,80.778503%,96.078491%);fill-opacity:1;" d="M 175.96875 46.117188 C 167.441406 58.332031 153.6875 63.496094 145.246094 57.640625 C 136.804688 51.789062 136.878906 37.144531 145.398438 24.925781 C 153.929688 12.710938 167.679688 7.554688 176.121094 13.402344 C 184.5625 19.253906 184.492188 33.902344 175.96875 46.117188 "/>
<path style=" stroke:none;fill-rule:nonzero;fill:rgb(59.21936%,61.569214%,64.309692%);fill-opacity:1;" d="M 186.378906 146.183594 C 186.378906 146.472656 186.144531 146.714844 185.851562 146.714844 L 180.144531 146.714844 C 179.855469 146.714844 179.613281 146.472656 179.613281 146.183594 C 179.613281 145.894531 179.855469 145.660156 180.144531 145.660156 L 185.851562 145.660156 C 186.144531 145.660156 186.378906 145.894531 186.378906 146.183594 "/>
<path style=" stroke:none;fill-rule:nonzero;fill:rgb(95.289612%,46.269226%,68.238831%);fill-opacity:1;" d="M 213.214844 224.964844 C 210.40625 227.984375 207.597656 231.015625 204.785156 234.042969 C 204.082031 234.796875 203.210938 235.527344 202.617188 236.371094 C 201.824219 237.5 204.035156 237.683594 204.851562 237.75 C 206.800781 237.902344 208.660156 237.3125 210.609375 237.410156 C 212.945312 237.53125 214.800781 238.855469 216.949219 239.578125 C 217.667969 239.816406 220.015625 240.480469 219.824219 239.113281 C 219.691406 238.199219 218.851562 237.039062 218.460938 236.207031 C 217.296875 233.707031 216.136719 231.207031 214.964844 228.714844 C 214.382812 227.464844 213.796875 226.214844 213.214844 224.964844 "/>
<g clip-path="url(#clip1)" clip-rule="nonzero">
<path style=" stroke:none;fill-rule:nonzero;fill:rgb(41.178894%,81.17981%,96.469116%);fill-opacity:1;" d="M 192.542969 375.054688 C 192.507812 375.054688 192.476562 375.054688 192.445312 375.050781 C 191.984375 375 191.648438 374.578125 191.703125 374.121094 C 193.007812 362.851562 196.058594 357.734375 200.296875 350.644531 C 201.707031 348.28125 203.308594 345.601562 204.988281 342.417969 C 210.226562 332.496094 209.660156 324.480469 203.152344 316.433594 L 202.585938 315.734375 C 195.335938 306.78125 190.542969 300.867188 196.050781 287.40625 C 199.601562 278.734375 206.558594 273.902344 213.292969 269.230469 C 217.546875 266.277344 221.9375 263.230469 225.464844 259.226562 C 231.035156 252.917969 232.714844 241.003906 229.121094 233.214844 C 227.457031 229.59375 223.949219 225.300781 216.710938 225.300781 C 216.632812 225.300781 216.570312 225.3125 216.480469 225.304688 C 216.019531 225.304688 215.640625 224.933594 215.636719 224.472656 C 215.628906 224.007812 216.003906 223.625 216.46875 223.621094 C 222.941406 223.484375 227.976562 226.699219 230.65625 232.507812 C 234.558594 240.988281 232.796875 253.46875 226.734375 260.335938 C 223.066406 264.488281 218.589844 267.597656 214.257812 270.601562 C 207.425781 275.351562 200.972656 279.828125 197.613281 288.039062 C 192.480469 300.582031 196.777344 305.890625 203.898438 314.679688 L 204.46875 315.378906 C 211.359375 323.90625 211.996094 332.742188 206.480469 343.199219 C 204.78125 346.421875 203.167969 349.121094 201.738281 351.507812 C 197.617188 358.410156 194.640625 363.40625 193.382812 374.3125 C 193.328125 374.738281 192.964844 375.054688 192.542969 375.054688 "/>
</g>
<path style=" stroke:none;fill-rule:nonzero;fill:rgb(95.289612%,46.269226%,68.238831%);fill-opacity:1;" d="M 283.285156 163.855469 C 276.304688 203.476562 244.503906 231.015625 212.25 225.371094 C 179.996094 219.730469 159.503906 183.039062 166.480469 143.425781 C 173.460938 103.808594 205.257812 76.265625 237.515625 81.910156 C 269.769531 87.558594 290.261719 124.242188 283.285156 163.855469 "/>
<path style=" stroke:none;fill-rule:nonzero;fill:rgb(96.469116%,63.919067%,83.918762%);fill-opacity:1;" d="M 235.523438 214.941406 C 231.980469 217.257812 228.089844 219.128906 223.78125 220.425781 C 232.59375 220.332031 239.519531 218.015625 246.902344 213.90625 C 266.769531 202.839844 279.636719 175.386719 279.449219 153.34375 C 279.199219 124.238281 274.765625 130.851562 262.925781 133.785156 C 271.800781 160.117188 258.746094 199.757812 235.523438 214.941406 "/>
<path style=" stroke:none;fill-rule:nonzero;fill:rgb(96.469116%,63.919067%,83.918762%);fill-opacity:1;" d="M 223.394531 126.261719 C 212.882812 136.824219 198.4375 139.539062 191.136719 132.316406 C 183.84375 125.101562 186.449219 110.6875 196.964844 100.125 C 207.480469 89.558594 221.925781 86.851562 229.222656 94.066406 C 236.523438 101.28125 233.910156 115.699219 223.394531 126.261719 "/>
<path style=" stroke:none;fill-rule:nonzero;fill:rgb(59.21936%,61.569214%,64.309692%);fill-opacity:1;" d="M 216.300781 226.617188 C 216.246094 226.902344 215.96875 227.09375 215.683594 227.046875 L 210.058594 226.0625 C 209.769531 226.011719 209.578125 225.738281 209.632812 225.453125 C 209.679688 225.164062 209.957031 224.972656 210.246094 225.027344 L 215.867188 226.007812 C 216.15625 226.0625 216.347656 226.328125 216.300781 226.617188 "/>
<path style=" stroke:none;fill-rule:nonzero;fill:rgb(96.469116%,63.919067%,83.918762%);fill-opacity:1;" d="M 216.535156 237.980469 C 216.882812 238.183594 217.324219 238.460938 217.738281 238.464844 C 217.960938 238.472656 218.347656 238.4375 218.445312 238.210938 C 218.703125 237.625 217.796875 236.679688 217.535156 236.195312 C 217.085938 235.386719 216.746094 234.523438 216.367188 233.679688 C 215.855469 232.546875 215.246094 231.464844 214.742188 230.328125 C 214.421875 229.601562 214.207031 228.769531 213.769531 228.101562 C 213.746094 228.066406 213.3125 227.609375 213.277344 227.710938 C 213.078125 228.222656 213.414062 229.042969 213.460938 229.566406 C 213.539062 230.398438 213.429688 231.285156 213.222656 232.09375 C 213.078125 232.648438 212.863281 233.15625 212.558594 233.636719 C 212.390625 233.910156 212.222656 234.226562 212.21875 234.566406 C 212.199219 235.101562 212.503906 235.074219 212.914062 235.179688 C 213.5625 235.332031 213.972656 235.933594 214.445312 236.34375 C 215.105469 236.914062 215.777344 237.542969 216.535156 237.980469 "/>
<path style=" stroke:none;fill-rule:nonzero;fill:rgb(39.99939%,78.819275%,56.079102%);fill-opacity:1;" d="M 274.457031 61.316406 L 263.707031 58.542969 L 267.601562 69.867188 Z M 274.457031 61.316406 "/>
<path style=" stroke:none;fill-rule:nonzero;fill:rgb(94.898987%,30.198669%,68.629456%);fill-opacity:1;" d="M 244.996094 314.449219 C 245.898438 312.765625 246.757812 310.734375 246.578125 308.769531 C 246.523438 309.035156 246.011719 308.109375 245.207031 308.011719 C 244.46875 307.917969 243.730469 307.859375 243.003906 308.070312 C 238.761719 309.351562 236.25 312.933594 236.351562 317.371094 C 236.371094 318.179688 236.445312 318.96875 236.550781 319.75 C 240.007812 319.441406 243.203125 317.796875 244.996094 314.449219 "/>
<path style=" stroke:none;fill-rule:nonzero;fill:rgb(94.898987%,30.198669%,68.629456%);fill-opacity:1;" d="M 141.679688 21.046875 C 142.464844 20.757812 143.269531 20.4375 143.984375 19.976562 C 143.820312 18.21875 142.917969 16.292969 141.722656 15.074219 C 138.523438 11.78125 133.84375 12.089844 129.835938 13.71875 C 127.257812 14.769531 124.792969 16.136719 122.585938 17.835938 C 121.648438 18.558594 119.96875 19.664062 118.785156 20.8125 C 125.5625 23.035156 134.917969 23.546875 141.679688 21.046875 "/>
<path style=" stroke:none;fill-rule:nonzero;fill:rgb(100%,97.24884%,50.19989%);fill-opacity:1;" d="M 201.378906 158.222656 C 201.378906 161.019531 199.316406 163.28125 196.769531 163.28125 C 194.214844 163.28125 192.152344 161.019531 192.152344 158.222656 C 192.152344 155.425781 194.214844 153.164062 196.769531 153.164062 C 199.316406 153.164062 201.378906 155.425781 201.378906 158.222656 "/>
<path style=" stroke:none;fill-rule:nonzero;fill:rgb(100%,97.24884%,50.19989%);fill-opacity:1;" d="M 224.121094 52.230469 C 224.121094 55.027344 222.058594 57.292969 219.503906 57.292969 C 216.953125 57.292969 214.890625 55.027344 214.890625 52.230469 C 214.890625 49.4375 216.953125 47.171875 219.503906 47.171875 C 222.058594 47.171875 224.121094 49.4375 224.121094 52.230469 "/>
<path style=" stroke:none;fill-rule:nonzero;fill:rgb(100%,97.24884%,50.19989%);fill-opacity:1;" d="M 102.324219 221.613281 C 102.324219 224.410156 100.257812 226.671875 97.710938 226.671875 C 95.15625 226.671875 93.09375 224.410156 93.09375 221.613281 C 93.09375 218.824219 95.15625 216.554688 97.710938 216.554688 C 100.257812 216.554688 102.324219 218.824219 102.324219 221.613281 "/>
<path style=" stroke:none;fill-rule:nonzero;fill:rgb(100%,97.24884%,50.19989%);fill-opacity:1;" d="M 117.160156 154.605469 L 121.863281 152.945312 L 117.679688 150.238281 L 117.542969 145.269531 L 113.667969 148.398438 L 108.882812 146.988281 L 110.671875 151.625 L 107.851562 155.730469 L 112.828125 155.464844 L 115.871094 159.410156 L 117.160156 154.605469 "/>
<path style=" stroke:none;fill-rule:nonzero;fill:rgb(19.999695%,74.119568%,94.898987%);fill-opacity:1;" d="M 257.9375 181.96875 L 246.089844 170.359375 L 250.617188 165.765625 L 262.464844 177.367188 L 257.9375 181.96875 "/>
<path style=" stroke:none;fill-rule:nonzero;fill:rgb(39.99939%,78.819275%,56.079102%);fill-opacity:1;" d="M 139.019531 66.382812 L 132.519531 75.355469 L 144.515625 75.851562 Z M 139.019531 66.382812 "/>
<path style=" stroke:none;fill-rule:nonzero;fill:rgb(100%,97.24884%,50.19989%);fill-opacity:1;" d="M 123.375 283.078125 C 123.375 285.878906 121.3125 288.144531 118.761719 288.144531 C 116.214844 288.144531 114.152344 285.878906 114.152344 283.078125 C 114.152344 280.285156 116.214844 278.023438 118.761719 278.023438 C 121.3125 278.023438 123.375 280.285156 123.375 283.078125 "/>
<path style=" stroke:none;fill-rule:nonzero;fill:rgb(19.999695%,74.119568%,94.898987%);fill-opacity:1;" d="M 81.433594 116.9375 L 92.175781 114.15625 L 88.28125 125.480469 Z M 81.433594 116.9375 "/>
<path style=" stroke:none;fill-rule:nonzero;fill:rgb(94.898987%,30.198669%,68.629456%);fill-opacity:1;" d="M 167.632812 247.109375 C 165.726562 246.9375 163.550781 246.546875 161.996094 245.320312 C 162.25 245.417969 161.753906 244.488281 162.109375 243.761719 C 162.433594 243.097656 162.785156 242.441406 163.367188 241.957031 C 166.757812 239.117188 171.144531 238.980469 174.816406 241.492188 C 175.480469 241.945312 176.105469 242.441406 176.703125 242.960938 C 174.558594 245.675781 171.425781 247.449219 167.632812 247.109375 "/>
<path style=" stroke:none;fill-rule:nonzero;fill:rgb(94.898987%,30.198669%,68.629456%);fill-opacity:1;" d="M 136.289062 133.8125 C 135.558594 134.230469 134.796875 134.648438 133.992188 134.90625 C 132.738281 133.65625 131.824219 131.738281 131.636719 130.042969 C 131.125 125.492188 134.347656 122.082031 138.15625 120.042969 C 140.609375 118.722656 143.238281 117.707031 145.960938 117.089844 C 147.113281 116.832031 149.039062 116.246094 150.679688 116.066406 C 148.082031 122.691406 142.523438 130.207031 136.289062 133.8125 "/>
<path style=" stroke:none;fill-rule:nonzero;fill:rgb(100%,97.24884%,50.19989%);fill-opacity:1;" d="M 248.601562 239.714844 C 248.601562 242.503906 250.671875 244.769531 253.21875 244.769531 C 255.765625 244.769531 257.832031 242.503906 257.832031 239.714844 C 257.832031 236.914062 255.765625 234.648438 253.21875 234.648438 C 250.671875 234.648438 248.601562 236.914062 248.601562 239.714844 "/>
<path style=" stroke:none;fill-rule:nonzero;fill:rgb(100%,97.24884%,50.19989%);fill-opacity:1;" d="M 99.964844 50.929688 C 99.964844 53.71875 102.035156 55.984375 104.582031 55.984375 C 107.132812 55.984375 109.195312 53.71875 109.195312 50.929688 C 109.195312 48.128906 107.132812 45.871094 104.582031 45.871094 C 102.035156 45.871094 99.964844 48.128906 99.964844 50.929688 "/>
<g clip-path="url(#clip2)" clip-rule="nonzero">
<path style=" stroke:none;fill-rule:nonzero;fill:rgb(100%,97.24884%,50.19989%);fill-opacity:1;" d="M 292.496094 91.59375 C 292.496094 94.390625 294.566406 96.652344 297.117188 96.652344 C 299.664062 96.652344 301.730469 94.390625 301.730469 91.59375 C 301.730469 88.796875 299.664062 86.535156 297.117188 86.535156 C 294.566406 86.535156 292.496094 88.796875 292.496094 91.59375 "/>
</g>
<path style=" stroke:none;fill-rule:nonzero;fill:rgb(100%,97.24884%,50.19989%);fill-opacity:1;" d="M 239.167969 137.03125 L 234.472656 135.371094 L 238.648438 132.65625 L 238.785156 127.691406 L 242.664062 130.820312 L 247.445312 129.40625 L 245.660156 134.050781 L 248.476562 138.152344 L 243.5 137.890625 L 240.457031 141.828125 L 239.167969 137.03125 "/>
<path style=" stroke:none;fill-rule:nonzero;fill:rgb(19.999695%,74.119568%,94.898987%);fill-opacity:1;" d="M 84.871094 179.664062 L 101.484375 179.664062 L 101.484375 173.226562 L 84.871094 173.226562 L 84.871094 179.664062 "/>
<path style=" stroke:none;fill-rule:nonzero;fill:rgb(39.99939%,78.819275%,56.079102%);fill-opacity:1;" d="M 218.8125 90.953125 L 225.3125 99.925781 L 213.3125 100.421875 Z M 218.8125 90.953125 "/>
<path style=" stroke:none;fill-rule:nonzero;fill:rgb(100%,97.24884%,50.19989%);fill-opacity:1;" d="M 205.898438 290.835938 C 205.898438 293.628906 207.964844 295.894531 210.515625 295.894531 C 213.0625 295.894531 215.125 293.628906 215.125 290.835938 C 215.125 288.039062 213.0625 285.769531 210.515625 285.769531 C 207.964844 285.769531 205.898438 288.039062 205.898438 290.835938 "/>
</g>
</svg>
